<svg width="173" height="173" viewBox="0 0 173 173" fill="none" xmlns="http://www.w3.org/2000/svg">
<path d="M95.8635 22.6919L158.1 130.485C159.049 132.129 159.549 133.993 159.549 135.891C159.549 137.789 159.049 139.654 158.1 141.298C157.151 142.941 155.786 144.306 154.143 145.255C152.499 146.204 150.635 146.704 148.737 146.704H24.2632C22.3652 146.704 20.5007 146.204 18.857 145.255C17.2133 144.306 15.8484 142.941 14.8995 141.298C13.9505 139.654 13.4509 137.789 13.4509 135.891C13.4509 133.993 13.9505 132.129 14.8995 130.485L77.1363 22.6919C81.2955 15.4836 91.6971 15.4836 95.8635 22.6919ZM86.4999 108.125C84.5881 108.125 82.7547 108.884 81.4028 110.236C80.051 111.588 79.2916 113.422 79.2916 115.333C79.2916 117.245 80.051 119.079 81.4028 120.43C82.7547 121.782 84.5881 122.542 86.4999 122.542C88.4117 122.542 90.2451 121.782 91.597 120.43C92.9488 119.079 93.7082 117.245 93.7082 115.333C93.7082 113.422 92.9488 111.588 91.597 110.236C90.2451 108.884 88.4117 108.125 86.4999 108.125ZM86.4999 57.6667C84.7343 57.667 83.0303 58.3152 81.7109 59.4884C80.3915 60.6616 79.5486 62.2783 79.342 64.0317L79.2916 64.8751V93.7084C79.2936 95.5456 79.9971 97.3128 81.2583 98.6488C82.5196 99.9847 84.2434 100.789 86.0775 100.896C87.9116 101.004 89.7176 100.407 91.1264 99.2281C92.5353 98.0489 93.4408 96.3762 93.6578 94.5518L93.7082 93.7084V64.8751C93.7082 62.9633 92.9488 61.1298 91.597 59.778C90.2451 58.4262 88.4117 57.6667 86.4999 57.6667Z" fill="#FF1313"/>
</svg>
