<svg width="14" height="14" viewBox="0 0 14 14" fill="none" xmlns="http://www.w3.org/2000/svg">
<g opacity="0.5">
<path d="M11.375 3.0625H9.85906L9.11367 1.94469C9.07374 1.88483 9.01966 1.83575 8.95622 1.80179C8.89279 1.76783 8.82195 1.75004 8.75 1.75H5.25C5.17805 1.75004 5.10721 1.76783 5.04378 1.80179C4.98034 1.83575 4.92626 1.88483 4.88633 1.94469L4.14039 3.0625H2.625C2.2769 3.0625 1.94306 3.20078 1.69692 3.44692C1.45078 3.69306 1.3125 4.0269 1.3125 4.375V10.5C1.3125 10.8481 1.45078 11.1819 1.69692 11.4281C1.94306 11.6742 2.2769 11.8125 2.625 11.8125H11.375C11.7231 11.8125 12.0569 11.6742 12.3031 11.4281C12.5492 11.1819 12.6875 10.8481 12.6875 10.5V4.375C12.6875 4.0269 12.5492 3.69306 12.3031 3.44692C12.0569 3.20078 11.7231 3.0625 11.375 3.0625ZM11.8125 10.5C11.8125 10.616 11.7664 10.7273 11.6844 10.8094C11.6023 10.8914 11.491 10.9375 11.375 10.9375H2.625C2.50897 10.9375 2.39769 10.8914 2.31564 10.8094C2.23359 10.7273 2.1875 10.616 2.1875 10.5V4.375C2.1875 4.25897 2.23359 4.14769 2.31564 4.06564C2.39769 3.98359 2.50897 3.9375 2.625 3.9375H4.375C4.44705 3.93755 4.51799 3.9198 4.58153 3.88584C4.64507 3.85187 4.69923 3.80274 4.73922 3.74281L5.48406 2.625H8.51539L9.26078 3.74281C9.30077 3.80274 9.35493 3.85187 9.41847 3.88584C9.48201 3.9198 9.55295 3.93755 9.625 3.9375H11.375C11.491 3.9375 11.6023 3.98359 11.6844 4.06564C11.7664 4.14769 11.8125 4.25897 11.8125 4.375V10.5ZM7 4.8125C6.52409 4.8125 6.05887 4.95362 5.66316 5.21803C5.26745 5.48243 4.95904 5.85823 4.77692 6.29792C4.59479 6.7376 4.54714 7.22142 4.63999 7.68819C4.73283 8.15495 4.962 8.58371 5.29852 8.92023C5.63504 9.25675 6.0638 9.48592 6.53056 9.57876C6.99733 9.67161 7.48115 9.62396 7.92083 9.44183C8.36052 9.25971 8.73632 8.9513 9.00072 8.55559C9.26513 8.15988 9.40625 7.69466 9.40625 7.21875C9.40553 6.58079 9.15178 5.96918 8.70068 5.51807C8.24957 5.06697 7.63796 4.81322 7 4.8125ZM7 8.75C6.69715 8.75 6.4011 8.66019 6.14928 8.49194C5.89747 8.32368 5.70121 8.08453 5.58531 7.80473C5.46941 7.52493 5.43909 7.21705 5.49817 6.92002C5.55726 6.62298 5.70309 6.35014 5.91724 6.13599C6.13139 5.92184 6.40423 5.77601 6.70127 5.71692C6.9983 5.65784 7.30618 5.68816 7.58598 5.80406C7.86578 5.91996 8.10493 6.11622 8.27319 6.36803C8.44144 6.61985 8.53125 6.9159 8.53125 7.21875C8.53125 7.62486 8.36992 8.01434 8.08276 8.30151C7.79559 8.58867 7.40611 8.75 7 8.75Z" fill="black"/>
</g>
</svg>
