<svg width="12" height="3" viewBox="0 0 12 3" fill="none" xmlns="http://www.w3.org/2000/svg">
<path d="M9.39843 1.62015C9.39843 1.32449 9.51588 1.04094 9.72494 0.831881C9.934 0.62282 10.2175 0.505371 10.5132 0.505371C10.8089 0.505371 11.0924 0.62282 11.3015 0.831881C11.5105 1.04094 11.628 1.32449 11.628 1.62015C11.628 1.9158 11.5105 2.19935 11.3015 2.40841C11.0924 2.61747 10.8089 2.73492 10.5132 2.73492C10.2175 2.73492 9.934 2.61747 9.72494 2.40841C9.51588 2.19935 9.39843 1.9158 9.39843 1.62015ZM4.93933 1.62015C4.93933 1.32449 5.05678 1.04094 5.26584 0.831881C5.4749 0.62282 5.75845 0.505371 6.0541 0.505371C6.34976 0.505371 6.63331 0.62282 6.84237 0.831881C7.05143 1.04094 7.16888 1.32449 7.16888 1.62015C7.16888 1.9158 7.05143 2.19935 6.84237 2.40841C6.63331 2.61747 6.34976 2.73492 6.0541 2.73492C5.75845 2.73492 5.4749 2.61747 5.26584 2.40841C5.05678 2.19935 4.93933 1.9158 4.93933 1.62015ZM0.480225 1.62015C0.480225 1.32449 0.597674 1.04094 0.806735 0.831881C1.0158 0.62282 1.29934 0.505371 1.595 0.505371C1.89066 0.505371 2.1742 0.62282 2.38327 0.831881C2.59233 1.04094 2.70978 1.32449 2.70978 1.62015C2.70978 1.9158 2.59233 2.19935 2.38327 2.40841C2.1742 2.61747 1.89066 2.73492 1.595 2.73492C1.29934 2.73492 1.0158 2.61747 0.806735 2.40841C0.597674 2.19935 0.480225 1.9158 0.480225 1.62015Z" fill="black"/>
</svg>
