<svg width="251" height="238" viewBox="0 0 251 238" fill="none" xmlns="http://www.w3.org/2000/svg">
<g filter="url(#filter0_d_33_1169)">
<rect x="12" y="9" width="226.666" height="213.547" rx="2" fill="white"/>
</g>
<rect x="33.5006" y="27.5851" width="186.58" height="23.3225" rx="1.63559" stroke="black" stroke-opacity="0.5" stroke-width="0.728828"/>
<g opacity="0.75">
<path d="M48.49 43.6195L45.4289 40.5584C45.186 40.7527 44.9066 40.9066 44.5908 41.02C44.275 41.1334 43.9389 41.19 43.5826 41.19C42.6999 41.19 41.9529 40.8843 41.3417 40.2727C40.7304 39.6611 40.4246 38.9142 40.4243 38.0318C40.424 37.1494 40.7298 36.4025 41.3417 35.7909C41.9536 35.1793 42.7005 34.8735 43.5826 34.8735C44.4646 34.8735 45.2117 35.1793 45.824 35.7909C46.4362 36.4025 46.7418 37.1494 46.7408 38.0318C46.7408 38.3881 46.6841 38.7242 46.5708 39.04C46.4574 39.3558 46.3035 39.6352 46.1092 39.8782L49.1703 42.9392L48.49 43.6195ZM43.5826 40.2183C44.1899 40.2183 44.7063 40.0058 45.1316 39.5808C45.5569 39.1558 45.7694 38.6395 45.7691 38.0318C45.7687 37.4241 45.5562 36.9079 45.1316 36.4833C44.7069 36.0586 44.1906 35.846 43.5826 35.8453C42.9746 35.8447 42.4584 36.0573 42.0341 36.4833C41.6097 36.9092 41.3971 37.4254 41.3961 38.0318C41.3951 38.6382 41.6078 39.1545 42.0341 39.5808C42.4603 40.0071 42.9765 40.2196 43.5826 40.2183Z" fill="black"/>
</g>
<path opacity="0.75" d="M57.1809 42.7466V35.4426H59.388L60.7133 40.4249L62.0236 35.4426H64.2357V42.7466H62.8656V36.9971L61.4158 42.7466H59.9959L58.551 36.9971V42.7466H57.1809ZM66.7368 39.0697L65.4664 38.8405C65.6092 38.329 65.855 37.9504 66.2037 37.7046C66.5525 37.4588 67.0706 37.3359 67.7582 37.3359C68.3826 37.3359 68.8476 37.4106 69.1532 37.5601C69.4588 37.7062 69.673 37.8939 69.7959 38.1231C69.9221 38.3489 69.9852 38.7658 69.9852 39.3736L69.9703 41.0078C69.9703 41.4728 69.9919 41.8166 70.0351 42.0391C70.0816 42.2583 70.1663 42.4941 70.2891 42.7466H68.9041C68.8676 42.6536 68.8227 42.5157 68.7696 42.3331C68.7463 42.25 68.7297 42.1952 68.7197 42.1686C68.4806 42.4011 68.2248 42.5755 67.9525 42.6918C67.6801 42.808 67.3895 42.8662 67.0806 42.8662C66.5359 42.8662 66.1057 42.7183 65.7902 42.4227C65.478 42.1271 65.3219 41.7535 65.3219 41.3017C65.3219 41.0028 65.3933 40.7371 65.5361 40.5046C65.6789 40.2688 65.8782 40.0894 66.134 39.9665C66.393 39.8403 66.7651 39.7307 67.25 39.6377C67.9043 39.5148 68.3577 39.4002 68.6101 39.2939V39.1544C68.6101 38.8854 68.5437 38.6944 68.4108 38.5814C68.278 38.4652 68.0272 38.4071 67.6585 38.4071C67.4094 38.4071 67.2151 38.4569 67.0756 38.5565C66.9361 38.6529 66.8232 38.8239 66.7368 39.0697ZM68.6101 40.2056C68.4308 40.2654 68.1468 40.3368 67.7582 40.4199C67.3696 40.5029 67.1155 40.5843 66.9959 40.664C66.8132 40.7936 66.7219 40.958 66.7219 41.1573C66.7219 41.3532 66.7949 41.5226 66.9411 41.6654C67.0872 41.8083 67.2732 41.8797 67.4991 41.8797C67.7515 41.8797 67.9923 41.7966 68.2215 41.6306C68.3909 41.5043 68.5022 41.3499 68.5553 41.1672C68.5919 41.0476 68.6101 40.8201 68.6101 40.4847V40.2056ZM76.1831 42.7466H74.7831V40.0462C74.7831 39.4749 74.7532 39.1062 74.6934 38.9402C74.6336 38.7708 74.5357 38.6396 74.3995 38.5466C74.2666 38.4536 74.1055 38.4071 73.9162 38.4071C73.6737 38.4071 73.4562 38.4735 73.2635 38.6064C73.0709 38.7392 72.938 38.9153 72.865 39.1345C72.7952 39.3537 72.7603 39.7589 72.7603 40.3501V42.7466H71.3603V37.4555H72.6607V38.2327C73.1224 37.6348 73.7036 37.3359 74.4045 37.3359C74.7134 37.3359 74.9957 37.3924 75.2514 37.5053C75.5072 37.6149 75.6998 37.7561 75.8294 37.9288C75.9622 38.1015 76.0536 38.2975 76.1034 38.5167C76.1565 38.7359 76.1831 39.0498 76.1831 39.4583V42.7466ZM81.4344 42.7466L79.7604 37.4555H81.1205L82.112 40.9231L83.0237 37.4555H84.3739L85.2557 40.9231L86.2671 37.4555H87.6472L85.9483 42.7466H84.6031L83.6913 39.3437L82.7945 42.7466H81.4344ZM88.3896 36.738V35.4426H89.7896V36.738H88.3896ZM88.3896 42.7466V37.4555H89.7896V42.7466H88.3896ZM93.6558 37.4555V38.5715H92.6992V40.7039C92.6992 41.1357 92.7075 41.3881 92.7241 41.4612C92.744 41.5309 92.7855 41.589 92.8487 41.6355C92.9151 41.682 92.9948 41.7053 93.0878 41.7053C93.2173 41.7053 93.405 41.6605 93.6508 41.5708L93.7704 42.6569C93.4449 42.7964 93.0762 42.8662 92.6643 42.8662C92.4119 42.8662 92.1844 42.8246 91.9817 42.7416C91.7791 42.6552 91.6297 42.5456 91.5333 42.4128C91.4403 42.2766 91.3756 42.0939 91.339 41.8647C91.3091 41.702 91.2942 41.3731 91.2942 40.8782V38.5715H90.6515V37.4555H91.2942V36.4042L92.6992 35.5871V37.4555H93.6558ZM96.0223 35.4426V38.1281C96.4741 37.5999 97.0138 37.3359 97.6416 37.3359C97.9637 37.3359 98.2544 37.3957 98.5134 37.5152C98.7725 37.6348 98.9668 37.7876 99.0964 37.9736C99.2292 38.1596 99.3189 38.3655 99.3654 38.5914C99.4152 38.8173 99.4401 39.1677 99.4401 39.6427V42.7466H98.0401V39.9516C98.0401 39.3969 98.0136 39.0448 97.9604 38.8953C97.9073 38.7459 97.8126 38.6279 97.6764 38.5416C97.5436 38.4519 97.3758 38.4071 97.1732 38.4071C96.9407 38.4071 96.7331 38.4635 96.5504 38.5765C96.3678 38.6894 96.2332 38.8604 96.1469 39.0896C96.0638 39.3155 96.0223 39.651 96.0223 40.096V42.7466H94.6223V35.4426H96.0223Z" fill="black"/>
<path opacity="0.5" d="M36.3946 67.103H35.6259V62.2048C35.4409 62.3813 35.1974 62.5578 34.8957 62.7343C34.5967 62.9108 34.3277 63.0432 34.0885 63.1315V62.3884C34.5184 62.1863 34.8942 61.9414 35.216 61.6539C35.5377 61.3664 35.7654 61.0873 35.8992 60.8169H36.3946V67.103ZM38.3676 64.0155C38.3676 63.2753 38.443 62.6802 38.5939 62.2304C38.7476 61.7777 38.974 61.429 39.2729 61.1841C39.5747 60.9393 39.9533 60.8169 40.4089 60.8169C40.7448 60.8169 41.0395 60.8852 41.2928 61.0219C41.5462 61.1557 41.7555 61.3507 41.9206 61.6069C42.0857 61.8603 42.2153 62.1706 42.3092 62.5379C42.4032 62.9023 42.4501 63.3948 42.4501 64.0155C42.4501 64.75 42.3747 65.3436 42.2238 65.7963C42.0729 66.2461 41.8466 66.5948 41.5448 66.8425C41.2459 67.0874 40.8672 67.2098 40.4089 67.2098C39.8053 67.2098 39.3313 66.9934 38.9868 66.5607C38.574 66.0397 38.3676 65.1913 38.3676 64.0155ZM39.1576 64.0155C39.1576 65.0432 39.2772 65.7279 39.5163 66.0696C39.7583 66.4084 40.0558 66.5778 40.4089 66.5778C40.7619 66.5778 41.058 66.4069 41.2971 66.0653C41.5391 65.7237 41.6601 65.0404 41.6601 64.0155C41.6601 62.9849 41.5391 62.3002 41.2971 61.9614C41.058 61.6226 40.759 61.4532 40.4003 61.4532C40.0473 61.4532 39.7654 61.6027 39.5548 61.9016C39.29 62.2831 39.1576 62.9877 39.1576 64.0155ZM45.7 65.0916L46.4815 65.0233C46.5185 65.3365 46.6039 65.5941 46.7377 65.7963C46.8744 65.9956 47.085 66.1578 47.3697 66.2831C47.6544 66.4055 47.9747 66.4667 48.3306 66.4667C48.6466 66.4667 48.9256 66.4198 49.1676 66.3258C49.4096 66.2319 49.589 66.1037 49.7057 65.9415C49.8253 65.7763 49.885 65.597 49.885 65.4034C49.885 65.2069 49.8281 65.0361 49.7142 64.8909C49.6003 64.7429 49.4124 64.619 49.1505 64.5194C48.9825 64.4539 48.611 64.3528 48.0359 64.2162C47.4608 64.0767 47.058 63.9457 46.8274 63.8233C46.5284 63.6667 46.305 63.4731 46.1569 63.2425C46.0117 63.0091 45.9391 62.7486 45.9391 62.461C45.9391 62.145 46.0288 61.8503 46.2082 61.577C46.3875 61.3009 46.6494 61.0916 46.9939 60.9493C47.3384 60.8069 47.7213 60.7357 48.1427 60.7357C48.6067 60.7357 49.0153 60.8112 49.3683 60.9621C49.7242 61.1101 49.9975 61.3293 50.1882 61.6197C50.379 61.9101 50.4815 62.239 50.4957 62.6062L49.7014 62.666C49.6587 62.2703 49.5135 61.9713 49.2658 61.7692C49.021 61.5671 48.658 61.466 48.1768 61.466C47.6758 61.466 47.3099 61.5585 47.0793 61.7436C46.8516 61.9258 46.7377 62.1464 46.7377 62.4055C46.7377 62.6304 46.8188 62.8155 46.9811 62.9607C47.1405 63.1059 47.5562 63.2553 48.2281 63.4091C48.9028 63.56 49.3655 63.6923 49.616 63.8062C49.9804 63.9742 50.2495 64.1877 50.4231 64.4468C50.5968 64.703 50.6836 64.9991 50.6836 65.335C50.6836 65.6681 50.5882 65.9827 50.3975 66.2788C50.2067 66.5721 49.932 66.8012 49.5733 66.9664C49.2174 67.1287 48.816 67.2098 48.369 67.2098C47.8025 67.2098 47.327 67.1272 46.9427 66.9621C46.5612 66.797 46.2608 66.5493 46.0416 66.219C45.8252 65.8859 45.7114 65.5101 45.7 65.0916ZM54.8217 65.6425L55.616 65.7407C55.4908 66.2048 55.2587 66.5649 54.9199 66.8212C54.5811 67.0774 54.1484 67.2055 53.6217 67.2055C52.9584 67.2055 52.4317 67.002 52.0416 66.5948C51.6544 66.1849 51.4608 65.6112 51.4608 64.8738C51.4608 64.1108 51.6573 63.5187 52.0502 63.0973C52.4431 62.676 52.9527 62.4653 53.579 62.4653C54.1854 62.4653 54.6808 62.6717 55.0651 63.0845C55.4495 63.4973 55.6416 64.0781 55.6416 64.8269C55.6416 64.8724 55.6402 64.9407 55.6374 65.0318H52.2552C52.2836 65.5301 52.4246 65.9116 52.6779 66.1763C52.9313 66.4411 53.2473 66.5735 53.626 66.5735C53.9078 66.5735 54.1484 66.4995 54.3477 66.3514C54.547 66.2034 54.705 65.9671 54.8217 65.6425ZM52.2979 64.3998H54.8303C54.7961 64.0183 54.6993 63.7322 54.5399 63.5414C54.295 63.2454 53.9776 63.0973 53.5875 63.0973C53.2345 63.0973 52.937 63.2155 52.695 63.4518C52.4559 63.6881 52.3235 64.0041 52.2979 64.3998ZM59.5449 66.5436C59.2602 66.7856 58.9854 66.9564 58.7207 67.0561C58.4587 67.1557 58.1769 67.2055 57.8751 67.2055C57.3769 67.2055 56.994 67.0845 56.7263 66.8425C56.4587 66.5977 56.3249 66.2859 56.3249 65.9073C56.3249 65.6852 56.3747 65.4831 56.4744 65.3009C56.5769 65.1158 56.7093 64.9678 56.8715 64.8568C57.0367 64.7457 57.2217 64.6617 57.4267 64.6048C57.5776 64.5649 57.8054 64.5265 58.11 64.4895C58.7306 64.4155 59.1876 64.3272 59.4808 64.2247C59.4836 64.1194 59.4851 64.0525 59.4851 64.024C59.4851 63.7108 59.4125 63.4902 59.2673 63.3621C59.0708 63.1884 58.779 63.1016 58.3918 63.1016C58.0303 63.1016 57.7626 63.1656 57.589 63.2938C57.4182 63.419 57.2915 63.6425 57.2089 63.9642L56.4573 63.8617C56.5256 63.54 56.6381 63.281 56.7947 63.0845C56.9513 62.8852 57.1776 62.7329 57.4737 62.6276C57.7698 62.5194 58.1128 62.4653 58.5029 62.4653C58.8901 62.4653 59.2046 62.5108 59.4466 62.6019C59.6886 62.693 59.8666 62.8084 59.9804 62.9479C60.0943 63.0845 60.174 63.2582 60.2196 63.4689C60.2452 63.5998 60.258 63.8361 60.258 64.1778V65.2027C60.258 65.9173 60.2737 66.3699 60.305 66.5607C60.3392 66.7486 60.4046 66.9294 60.5014 67.103H59.6986C59.6189 66.9436 59.5676 66.7571 59.5449 66.5436ZM59.4808 64.8269C59.2018 64.9407 58.7833 65.0375 58.2253 65.1173C57.9093 65.1628 57.6858 65.2141 57.5548 65.271C57.4239 65.3279 57.3228 65.4119 57.2516 65.523C57.1804 65.6311 57.1449 65.7521 57.1449 65.8859C57.1449 66.0909 57.2217 66.2617 57.3755 66.3984C57.532 66.5351 57.7598 66.6034 58.0587 66.6034C58.3548 66.6034 58.6182 66.5393 58.8488 66.4112C59.0794 66.2802 59.2488 66.1023 59.357 65.8774C59.4395 65.7037 59.4808 65.4475 59.4808 65.1087V64.8269ZM61.4452 67.103V62.5678H62.137V63.2553C62.3136 62.9336 62.4758 62.7215 62.6239 62.619C62.7748 62.5165 62.9399 62.4653 63.1192 62.4653C63.3783 62.4653 63.6417 62.5479 63.9093 62.713L63.6445 63.4261C63.4566 63.3151 63.2687 63.2596 63.0808 63.2596C62.9128 63.2596 62.762 63.3108 62.6281 63.4133C62.4943 63.513 62.399 63.6525 62.342 63.8318C62.2566 64.1052 62.2139 64.4041 62.2139 64.7286V67.103H61.4452ZM67.3257 65.4418L68.0815 65.54C67.999 66.061 67.7869 66.4696 67.4452 66.7657C67.1064 67.0589 66.6894 67.2055 66.194 67.2055C65.5733 67.2055 65.0737 67.0034 64.6951 66.5991C64.3193 66.192 64.1313 65.6098 64.1313 64.8525C64.1313 64.3628 64.2125 63.9343 64.3748 63.5671C64.537 63.1998 64.7833 62.9251 65.1136 62.7429C65.4467 62.5578 65.8082 62.4653 66.1983 62.4653C66.6908 62.4653 67.0936 62.5906 67.4068 62.8411C67.72 63.0888 67.9207 63.4418 68.0089 63.9002L67.2616 64.0155C67.1904 63.7108 67.0637 63.4817 66.8815 63.3279C66.7022 63.1742 66.4844 63.0973 66.2282 63.0973C65.841 63.0973 65.5264 63.2368 65.2844 63.5158C65.0424 63.792 64.9214 64.2304 64.9214 64.8311C64.9214 65.4404 65.0381 65.8831 65.2716 66.1593C65.505 66.4354 65.8096 66.5735 66.1854 66.5735C66.4872 66.5735 66.7392 66.481 66.9413 66.2959C67.1435 66.1109 67.2716 65.8262 67.3257 65.4418ZM68.7392 67.103V60.8425H69.5079V63.0888C69.8666 62.6731 70.3193 62.4653 70.8659 62.4653C71.2018 62.4653 71.4937 62.5322 71.7413 62.666C71.989 62.797 72.1655 62.9792 72.2709 63.2126C72.3791 63.4461 72.4332 63.7849 72.4332 64.229V67.103H71.6645V64.229C71.6645 63.8447 71.5805 63.5656 71.4125 63.392C71.2474 63.2155 71.0125 63.1272 70.7079 63.1272C70.4801 63.1272 70.2652 63.187 70.063 63.3066C69.8638 63.4233 69.7214 63.5827 69.636 63.7849C69.5506 63.987 69.5079 64.266 69.5079 64.6219V67.103H68.7392ZM76.1527 67.103V60.8425H78.9286C79.4866 60.8425 79.9108 60.8994 80.2012 61.0133C80.4915 61.1244 80.7236 61.3222 80.8972 61.6069C81.0709 61.8916 81.1577 62.2062 81.1577 62.5507C81.1577 62.9948 81.014 63.3692 80.7264 63.6738C80.4389 63.9785 79.9947 64.1721 79.394 64.2546C79.6133 64.36 79.7798 64.4639 79.8937 64.5664C80.1357 64.7884 80.3649 65.066 80.5812 65.3991L81.6702 67.103H80.6282L79.7997 65.8005C79.5577 65.4247 79.3584 65.1372 79.2019 64.9379C79.0453 64.7386 78.9044 64.5991 78.7791 64.5194C78.6567 64.4397 78.5314 64.3842 78.4033 64.3528C78.3093 64.3329 78.1556 64.3229 77.9421 64.3229H76.9812V67.103H76.1527ZM76.9812 63.6055H78.762C79.1407 63.6055 79.4367 63.5671 79.6503 63.4902C79.8638 63.4105 80.0261 63.2852 80.1371 63.1144C80.2481 62.9407 80.3036 62.7528 80.3036 62.5507C80.3036 62.2546 80.1955 62.0112 79.9791 61.8204C79.7656 61.6297 79.4268 61.5343 78.9627 61.5343H76.9812V63.6055ZM85.4667 65.6425L86.261 65.7407C86.1357 66.2048 85.9037 66.5649 85.5649 66.8212C85.2261 67.0774 84.7933 67.2055 84.2666 67.2055C83.6033 67.2055 83.0766 67.002 82.6866 66.5948C82.2994 66.1849 82.1058 65.6112 82.1058 64.8738C82.1058 64.1108 82.3022 63.5187 82.6951 63.0973C83.088 62.676 83.5976 62.4653 84.2239 62.4653C84.8303 62.4653 85.3257 62.6717 85.7101 63.0845C86.0944 63.4973 86.2866 64.0781 86.2866 64.8269C86.2866 64.8724 86.2852 64.9407 86.2823 65.0318H82.9001C82.9286 65.5301 83.0695 65.9116 83.3229 66.1763C83.5763 66.4411 83.8923 66.5735 84.2709 66.5735C84.5528 66.5735 84.7933 66.4995 84.9926 66.3514C85.1919 66.2034 85.3499 65.9671 85.4667 65.6425ZM82.9428 64.3998H85.4752C85.441 64.0183 85.3442 63.7322 85.1848 63.5414C84.94 63.2454 84.6225 63.0973 84.2325 63.0973C83.8795 63.0973 83.5819 63.2155 83.34 63.4518C83.1008 63.6881 82.9684 64.0041 82.9428 64.3998ZM86.9229 65.7493L87.683 65.6297C87.7257 65.9343 87.8439 66.1678 88.0375 66.3301C88.2339 66.4923 88.5072 66.5735 88.8574 66.5735C89.2104 66.5735 89.4724 66.5023 89.6432 66.36C89.814 66.2148 89.8994 66.0454 89.8994 65.8518C89.8994 65.6781 89.824 65.5415 89.6731 65.4418C89.5677 65.3735 89.3058 65.2867 88.8873 65.1813C88.3236 65.039 87.9321 64.9165 87.7129 64.8141C87.4966 64.7087 87.3314 64.5649 87.2175 64.3827C87.1065 64.1977 87.051 63.9941 87.051 63.7721C87.051 63.5699 87.0965 63.3834 87.1877 63.2126C87.2816 63.039 87.4083 62.8952 87.5677 62.7813C87.6873 62.693 87.8496 62.619 88.0546 62.5592C88.2624 62.4966 88.4845 62.4653 88.7208 62.4653C89.0766 62.4653 89.3884 62.5165 89.656 62.619C89.9265 62.7215 90.1257 62.861 90.2539 63.0375C90.382 63.2112 90.4702 63.4447 90.5186 63.7379L89.767 63.8404C89.7329 63.6069 89.6332 63.4247 89.4681 63.2938C89.3058 63.1628 89.0752 63.0973 88.7763 63.0973C88.4232 63.0973 88.1713 63.1557 88.0204 63.2724C87.8695 63.3891 87.7941 63.5258 87.7941 63.6824C87.7941 63.782 87.8254 63.8717 87.888 63.9514C87.9506 64.034 88.0489 64.1023 88.1827 64.1564C88.2595 64.1849 88.4859 64.2503 88.8617 64.3528C89.4055 64.498 89.7841 64.6176 89.9976 64.7116C90.214 64.8027 90.3834 64.9365 90.5058 65.113C90.6282 65.2895 90.6894 65.5087 90.6894 65.7706C90.6894 66.0269 90.614 66.2689 90.4631 66.4966C90.3151 66.7215 90.1001 66.8966 89.8183 67.0219C89.5364 67.1443 89.2176 67.2055 88.8617 67.2055C88.2724 67.2055 87.8225 67.0831 87.5122 66.8383C87.2047 66.5934 87.0083 66.2304 86.9229 65.7493ZM94.5756 67.103V66.4368C94.2226 66.9493 93.7428 67.2055 93.1364 67.2055C92.8688 67.2055 92.6183 67.1543 92.3848 67.0518C92.1542 66.9493 91.982 66.8212 91.8681 66.6674C91.7571 66.5109 91.6788 66.3201 91.6332 66.0952C91.6019 65.9443 91.5862 65.7052 91.5862 65.3778V62.5678H92.3549V65.0831C92.3549 65.4845 92.3706 65.755 92.4019 65.8945C92.4503 66.0966 92.5528 66.256 92.7094 66.3728C92.866 66.4867 93.0596 66.5436 93.2902 66.5436C93.5208 66.5436 93.7371 66.4852 93.9393 66.3685C94.1414 66.2489 94.2838 66.0881 94.3663 65.8859C94.4517 65.681 94.4944 65.3849 94.4944 64.9977V62.5678H95.2631V67.103H94.5756ZM96.4546 67.103V60.8425H97.2233V67.103H96.4546ZM100.097 66.4155L100.208 67.0945C99.992 67.14 99.7984 67.1628 99.6276 67.1628C99.3485 67.1628 99.1322 67.1187 98.9784 67.0304C98.8247 66.9422 98.7165 66.8269 98.6539 66.6845C98.5912 66.5393 98.5599 66.2361 98.5599 65.7749V63.1656H97.9962V62.5678H98.5599V61.4446L99.3243 60.9834V62.5678H100.097V63.1656H99.3243V65.8176C99.3243 66.0368 99.3372 66.1778 99.3628 66.2404C99.3913 66.303 99.4354 66.3528 99.4952 66.3899C99.5578 66.4269 99.6461 66.4454 99.7599 66.4454C99.8453 66.4454 99.9578 66.4354 100.097 66.4155ZM100.546 65.7493L101.306 65.6297C101.349 65.9343 101.467 66.1678 101.66 66.3301C101.857 66.4923 102.13 66.5735 102.48 66.5735C102.833 66.5735 103.095 66.5023 103.266 66.36C103.437 66.2148 103.522 66.0454 103.522 65.8518C103.522 65.6781 103.447 65.5415 103.296 65.4418C103.191 65.3735 102.929 65.2867 102.51 65.1813C101.946 65.039 101.555 64.9165 101.336 64.8141C101.119 64.7087 100.954 64.5649 100.84 64.3827C100.729 64.1977 100.674 63.9941 100.674 63.7721C100.674 63.5699 100.719 63.3834 100.81 63.2126C100.904 63.039 101.031 62.8952 101.191 62.7813C101.31 62.693 101.472 62.619 101.677 62.5592C101.885 62.4966 102.107 62.4653 102.344 62.4653C102.699 62.4653 103.011 62.5165 103.279 62.619C103.549 62.7215 103.749 62.861 103.877 63.0375C104.005 63.2112 104.093 63.4447 104.141 63.7379L103.39 63.8404C103.356 63.6069 103.256 63.4247 103.091 63.2938C102.929 63.1628 102.698 63.0973 102.399 63.0973C102.046 63.0973 101.794 63.1557 101.643 63.2724C101.492 63.3891 101.417 63.5258 101.417 63.6824C101.417 63.782 101.448 63.8717 101.511 63.9514C101.573 64.034 101.672 64.1023 101.805 64.1564C101.882 64.1849 102.109 64.2503 102.485 64.3528C103.028 64.498 103.407 64.6176 103.62 64.7116C103.837 64.8027 104.006 64.9365 104.129 65.113C104.251 65.2895 104.312 65.5087 104.312 65.7706C104.312 66.0269 104.237 66.2689 104.086 66.4966C103.938 66.7215 103.723 66.8966 103.441 67.0219C103.159 67.1443 102.84 67.2055 102.485 67.2055C101.895 67.2055 101.445 67.0831 101.135 66.8383C100.828 66.5934 100.631 66.2304 100.546 65.7493Z" fill="black"/>
<rect x="33.8652" y="148.206" width="187.309" height="48.8315" rx="2" fill="white"/>
<rect x="34.2296" y="148.57" width="186.58" height="48.1027" rx="1.63559" stroke="black" stroke-opacity="0.1" stroke-width="0.728828"/>
<path opacity="0.5" d="M178.516 168.41H177.748V163.511C177.562 163.688 177.319 163.864 177.017 164.041C176.718 164.217 176.449 164.35 176.21 164.438V163.695C176.64 163.493 177.016 163.248 177.338 162.961C177.659 162.673 177.887 162.394 178.021 162.124H178.516V168.41ZM180.489 165.322C180.489 164.582 180.565 163.987 180.715 163.537C180.869 163.084 181.096 162.736 181.394 162.491C181.696 162.246 182.075 162.124 182.53 162.124C182.866 162.124 183.161 162.192 183.414 162.329C183.668 162.462 183.877 162.657 184.042 162.914C184.207 163.167 184.337 163.477 184.431 163.845C184.525 164.209 184.572 164.701 184.572 165.322C184.572 166.057 184.496 166.65 184.345 167.103C184.194 167.553 183.968 167.901 183.666 168.149C183.367 168.394 182.989 168.516 182.53 168.516C181.927 168.516 181.453 168.3 181.108 167.867C180.696 167.346 180.489 166.498 180.489 165.322ZM181.279 165.322C181.279 166.35 181.399 167.035 181.638 167.376C181.88 167.715 182.177 167.884 182.53 167.884C182.883 167.884 183.18 167.714 183.419 167.372C183.661 167.03 183.782 166.347 183.782 165.322C183.782 164.292 183.661 163.607 183.419 163.268C183.18 162.929 182.881 162.76 182.522 162.76C182.169 162.76 181.887 162.909 181.676 163.208C181.412 163.59 181.279 164.294 181.279 165.322ZM185.571 168.41V163.874H186.259V164.511C186.401 164.289 186.59 164.111 186.827 163.977C187.063 163.84 187.332 163.772 187.634 163.772C187.97 163.772 188.244 163.842 188.458 163.981C188.674 164.121 188.827 164.316 188.915 164.566C189.274 164.037 189.74 163.772 190.316 163.772C190.765 163.772 191.111 163.897 191.353 164.148C191.595 164.395 191.716 164.778 191.716 165.296V168.41H190.952V165.553C190.952 165.245 190.926 165.025 190.875 164.891C190.827 164.754 190.737 164.645 190.606 164.562C190.475 164.479 190.321 164.438 190.145 164.438C189.826 164.438 189.561 164.545 189.35 164.758C189.14 164.969 189.034 165.308 189.034 165.775V168.41H188.266V165.463C188.266 165.121 188.203 164.865 188.078 164.694C187.953 164.524 187.748 164.438 187.463 164.438C187.246 164.438 187.046 164.495 186.861 164.609C186.678 164.723 186.546 164.889 186.464 165.109C186.381 165.328 186.34 165.644 186.34 166.057V168.41H185.571ZM198.25 167.85C197.965 168.092 197.691 168.263 197.426 168.363C197.164 168.462 196.882 168.512 196.58 168.512C196.082 168.512 195.699 168.391 195.432 168.149C195.164 167.904 195.03 167.593 195.03 167.214C195.03 166.992 195.08 166.79 195.18 166.608C195.282 166.422 195.414 166.274 195.577 166.163C195.742 166.052 195.927 165.968 196.132 165.911C196.283 165.872 196.511 165.833 196.815 165.796C197.436 165.722 197.893 165.634 198.186 165.531C198.189 165.426 198.19 165.359 198.19 165.331C198.19 165.017 198.118 164.797 197.972 164.669C197.776 164.495 197.484 164.408 197.097 164.408C196.735 164.408 196.468 164.472 196.294 164.6C196.123 164.726 195.997 164.949 195.914 165.271L195.163 165.168C195.231 164.847 195.343 164.588 195.5 164.391C195.656 164.192 195.883 164.04 196.179 163.934C196.475 163.826 196.818 163.772 197.208 163.772C197.595 163.772 197.91 163.817 198.152 163.909C198.394 164 198.572 164.115 198.686 164.254C198.8 164.391 198.879 164.565 198.925 164.775C198.95 164.906 198.963 165.143 198.963 165.484V166.509C198.963 167.224 198.979 167.677 199.01 167.867C199.044 168.055 199.11 168.236 199.207 168.41H198.404C198.324 168.25 198.273 168.064 198.25 167.85ZM198.186 166.134C197.907 166.247 197.488 166.344 196.93 166.424C196.614 166.469 196.391 166.521 196.26 166.578C196.129 166.635 196.028 166.719 195.957 166.83C195.886 166.938 195.85 167.059 195.85 167.193C195.85 167.398 195.927 167.568 196.081 167.705C196.237 167.842 196.465 167.91 196.764 167.91C197.06 167.91 197.323 167.846 197.554 167.718C197.785 167.587 197.954 167.409 198.062 167.184C198.145 167.01 198.186 166.754 198.186 166.415V166.134ZM200.018 168.785L200.765 168.897C200.797 169.127 200.884 169.295 201.026 169.4C201.217 169.543 201.477 169.614 201.807 169.614C202.163 169.614 202.438 169.543 202.632 169.4C202.825 169.258 202.956 169.059 203.024 168.803C203.064 168.646 203.083 168.317 203.08 167.816C202.744 168.212 202.326 168.41 201.824 168.41C201.201 168.41 200.718 168.185 200.377 167.735C200.035 167.285 199.864 166.746 199.864 166.116C199.864 165.684 199.943 165.285 200.099 164.921C200.256 164.553 200.482 164.27 200.778 164.071C201.077 163.872 201.427 163.772 201.829 163.772C202.364 163.772 202.805 163.988 203.153 164.421V163.874H203.861V167.795C203.861 168.501 203.789 169 203.644 169.294C203.501 169.59 203.274 169.823 202.96 169.994C202.65 170.165 202.267 170.25 201.812 170.25C201.271 170.25 200.834 170.128 200.501 169.883C200.168 169.641 200.007 169.275 200.018 168.785ZM200.654 166.061C200.654 166.656 200.772 167.09 201.009 167.363C201.245 167.637 201.541 167.773 201.897 167.773C202.25 167.773 202.546 167.638 202.785 167.368C203.024 167.094 203.144 166.667 203.144 166.087C203.144 165.531 203.02 165.113 202.772 164.831C202.528 164.549 202.232 164.408 201.884 164.408C201.543 164.408 201.252 164.548 201.013 164.827C200.774 165.103 200.654 165.514 200.654 166.061ZM204.741 166.142C204.741 165.302 204.975 164.68 205.442 164.276C205.832 163.94 206.307 163.772 206.868 163.772C207.491 163.772 208.001 163.977 208.397 164.387C208.792 164.794 208.99 165.358 208.99 166.078C208.99 166.662 208.902 167.121 208.726 167.457C208.552 167.79 208.297 168.05 207.961 168.235C207.628 168.42 207.264 168.512 206.868 168.512C206.233 168.512 205.719 168.309 205.326 167.901C204.936 167.494 204.741 166.908 204.741 166.142ZM205.531 166.142C205.531 166.723 205.658 167.158 205.911 167.449C206.165 167.736 206.484 167.88 206.868 167.88C207.249 167.88 207.567 167.735 207.82 167.445C208.074 167.154 208.2 166.711 208.2 166.116C208.2 165.556 208.072 165.131 207.816 164.844C207.563 164.553 207.247 164.408 206.868 164.408C206.484 164.408 206.165 164.552 205.911 164.84C205.658 165.127 205.531 165.561 205.531 166.142Z" fill="black"/>
<path d="M56.9134 164.616L64.7793 178.24C64.8992 178.447 64.9623 178.683 64.9624 178.923C64.9624 179.163 64.8992 179.398 64.7793 179.606C64.6593 179.814 64.4868 179.986 64.2791 180.106C64.0714 180.226 63.8357 180.289 63.5958 180.289H47.8641C47.6242 180.289 47.3885 180.226 47.1808 180.106C46.9731 179.986 46.8006 179.814 46.6806 179.606C46.5607 179.398 46.4976 179.163 46.4976 178.923C46.4976 178.683 46.5607 178.447 46.6806 178.24L54.5465 164.616C55.0722 163.705 56.3868 163.705 56.9134 164.616ZM55.73 175.413C55.4883 175.413 55.2566 175.509 55.0858 175.68C54.9149 175.851 54.8189 176.083 54.8189 176.325C54.8189 176.566 54.9149 176.798 55.0858 176.969C55.2566 177.14 55.4883 177.236 55.73 177.236C55.9716 177.236 56.2033 177.14 56.3742 176.969C56.545 176.798 56.641 176.566 56.641 176.325C56.641 176.083 56.545 175.851 56.3742 175.68C56.2033 175.509 55.9716 175.413 55.73 175.413ZM55.73 169.036C55.5068 169.036 55.2914 169.118 55.1247 169.266C54.9579 169.415 54.8514 169.619 54.8253 169.841L54.8189 169.947V173.591C54.8192 173.824 54.9081 174.047 55.0675 174.216C55.2269 174.385 55.4448 174.486 55.6766 174.5C55.9084 174.513 56.1366 174.438 56.3147 174.289C56.4928 174.14 56.6072 173.929 56.6346 173.698L56.641 173.591V169.947C56.641 169.706 56.545 169.474 56.3742 169.303C56.2033 169.132 55.9716 169.036 55.73 169.036Z" fill="#FF1313"/>
<path d="M79.1059 168.681V161.437H80.5807V167.45H84.2476V168.681H79.1059ZM88.3579 166.997L89.753 167.231C89.5736 167.742 89.2896 168.133 88.901 168.402C88.5157 168.667 88.0324 168.8 87.4512 168.8C86.5311 168.8 85.8502 168.5 85.4085 167.898C85.0597 167.417 84.8853 166.809 84.8853 166.075C84.8853 165.198 85.1145 164.512 85.5729 164.017C86.0312 163.519 86.6108 163.27 87.3117 163.27C88.0989 163.27 88.72 163.531 89.175 164.052C89.6301 164.57 89.8476 165.366 89.8277 166.439H86.3202C86.3302 166.854 86.4431 167.178 86.659 167.41C86.8749 167.639 87.1439 167.754 87.4661 167.754C87.6853 167.754 87.8697 167.694 88.0191 167.575C88.1686 167.455 88.2815 167.262 88.3579 166.997ZM88.4376 165.582C88.4277 165.177 88.3231 164.869 88.1238 164.66C87.9245 164.447 87.682 164.341 87.3964 164.341C87.0908 164.341 86.8383 164.452 86.6391 164.675C86.4398 164.897 86.3418 165.2 86.3451 165.582H88.4376ZM92.4284 168.681L90.296 163.39H91.7658L92.7622 166.09L93.0512 166.992C93.1276 166.763 93.1757 166.611 93.1957 166.538C93.2422 166.389 93.292 166.239 93.3451 166.09L94.3515 163.39H95.7914L93.6889 168.681H92.4284ZM96.6533 162.672V161.377H98.0533V162.672H96.6533ZM96.6533 168.681V163.39H98.0533V168.681H96.6533ZM104.306 168.681H102.906V165.98C102.906 165.409 102.876 165.04 102.816 164.874C102.757 164.705 102.659 164.574 102.522 164.481C102.39 164.388 102.228 164.341 102.039 164.341C101.797 164.341 101.579 164.408 101.386 164.54C101.194 164.673 101.061 164.849 100.988 165.069C100.918 165.288 100.883 165.693 100.883 166.284V168.681H99.4832V163.39H100.784V164.167C101.245 163.569 101.827 163.27 102.527 163.27C102.836 163.27 103.119 163.326 103.374 163.439C103.63 163.549 103.823 163.69 103.952 163.863C104.085 164.036 104.176 164.232 104.226 164.451C104.279 164.67 104.306 164.984 104.306 165.392V168.681ZM108.795 166.997L110.19 167.231C110.011 167.742 109.727 168.133 109.338 168.402C108.953 168.667 108.47 168.8 107.888 168.8C106.968 168.8 106.287 168.5 105.846 167.898C105.497 167.417 105.322 166.809 105.322 166.075C105.322 165.198 105.552 164.512 106.01 164.017C106.468 163.519 107.048 163.27 107.749 163.27C108.536 163.27 109.157 163.531 109.612 164.052C110.067 164.57 110.285 165.366 110.265 166.439H106.757C106.767 166.854 106.88 167.178 107.096 167.41C107.312 167.639 107.581 167.754 107.903 167.754C108.122 167.754 108.307 167.694 108.456 167.575C108.606 167.455 108.719 167.262 108.795 166.997ZM108.875 165.582C108.865 165.177 108.76 164.869 108.561 164.66C108.362 164.447 108.119 164.341 107.833 164.341C107.528 164.341 107.275 164.452 107.076 164.675C106.877 164.897 106.779 165.2 106.782 165.582H108.875ZM114.27 168.681V161.377H119.278V162.612H115.745V164.341H118.794V165.577H115.745V168.681H114.27ZM120.488 168.681V161.377H121.888V168.681H120.488ZM123.004 165.96C123.004 165.495 123.119 165.045 123.348 164.61C123.577 164.175 123.901 163.843 124.32 163.614C124.741 163.385 125.211 163.27 125.73 163.27C126.53 163.27 127.186 163.531 127.698 164.052C128.209 164.57 128.465 165.226 128.465 166.02C128.465 166.821 128.206 167.485 127.688 168.013C127.173 168.538 126.523 168.8 125.74 168.8C125.255 168.8 124.791 168.691 124.35 168.471C123.911 168.252 123.577 167.932 123.348 167.51C123.119 167.085 123.004 166.568 123.004 165.96ZM124.439 166.035C124.439 166.56 124.564 166.962 124.813 167.241C125.062 167.52 125.369 167.659 125.735 167.659C126.1 167.659 126.406 167.52 126.651 167.241C126.9 166.962 127.025 166.557 127.025 166.025C127.025 165.507 126.9 165.108 126.651 164.829C126.406 164.55 126.1 164.411 125.735 164.411C125.369 164.411 125.062 164.55 124.813 164.829C124.564 165.108 124.439 165.51 124.439 166.035ZM129.242 165.96C129.242 165.495 129.357 165.045 129.586 164.61C129.815 164.175 130.139 163.843 130.557 163.614C130.979 163.385 131.449 163.27 131.967 163.27C132.768 163.27 133.424 163.531 133.935 164.052C134.447 164.57 134.703 165.226 134.703 166.02C134.703 166.821 134.443 167.485 133.925 168.013C133.411 168.538 132.761 168.8 131.977 168.8C131.492 168.8 131.029 168.691 130.587 168.471C130.149 168.252 129.815 167.932 129.586 167.51C129.357 167.085 129.242 166.568 129.242 165.96ZM130.677 166.035C130.677 166.56 130.801 166.962 131.051 167.241C131.3 167.52 131.607 167.659 131.972 167.659C132.338 167.659 132.643 167.52 132.889 167.241C133.138 166.962 133.263 166.557 133.263 166.025C133.263 165.507 133.138 165.108 132.889 164.829C132.643 164.55 132.338 164.411 131.972 164.411C131.607 164.411 131.3 164.55 131.051 164.829C130.801 165.108 130.677 165.51 130.677 166.035ZM137.144 168.681H135.744V163.39H137.044V164.142C137.267 163.786 137.466 163.552 137.642 163.439C137.821 163.326 138.024 163.27 138.25 163.27C138.569 163.27 138.876 163.358 139.172 163.534L138.738 164.755C138.502 164.602 138.283 164.525 138.081 164.525C137.885 164.525 137.718 164.58 137.582 164.69C137.446 164.796 137.338 164.99 137.258 165.273C137.182 165.555 137.144 166.146 137.144 167.046V168.681ZM147.049 167.38V168.681H142.141C142.194 168.189 142.354 167.724 142.619 167.286C142.885 166.844 143.41 166.259 144.194 165.532C144.825 164.944 145.212 164.545 145.355 164.336C145.547 164.047 145.644 163.762 145.644 163.479C145.644 163.167 145.559 162.928 145.389 162.762C145.223 162.592 144.993 162.508 144.697 162.508C144.405 162.508 144.172 162.596 143.999 162.772C143.827 162.948 143.727 163.24 143.7 163.649L142.305 163.509C142.388 162.739 142.649 162.186 143.088 161.85C143.526 161.515 144.074 161.347 144.732 161.347C145.453 161.347 146.019 161.541 146.431 161.93C146.843 162.318 147.049 162.802 147.049 163.38C147.049 163.708 146.989 164.022 146.869 164.321C146.753 164.617 146.567 164.927 146.311 165.253C146.142 165.469 145.836 165.779 145.394 166.185C144.953 166.59 144.672 166.859 144.552 166.992C144.436 167.125 144.342 167.254 144.268 167.38H147.049Z" fill="black"/>
<rect x="78.6881" y="175.045" width="24.6784" height="12.2712" rx="1.09324" stroke="black" stroke-opacity="0.5" stroke-width="0.728828"/>
<g opacity="0.5">
<path d="M90.9872 178.311H89.8823L89.339 177.496C89.3099 177.453 89.2705 177.417 89.2243 177.392C89.178 177.367 89.1264 177.355 89.074 177.354H86.5231C86.4706 177.355 86.419 177.367 86.3728 177.392C86.3265 177.417 86.2871 177.453 86.258 177.496L85.7144 178.311H84.6099C84.3562 178.311 84.1129 178.412 83.9335 178.591C83.7541 178.771 83.6533 179.014 83.6533 179.268V183.732C83.6533 183.985 83.7541 184.229 83.9335 184.408C84.1129 184.588 84.3562 184.688 84.6099 184.688H90.9872C91.2409 184.688 91.4842 184.588 91.6636 184.408C91.843 184.229 91.9437 183.985 91.9437 183.732V179.268C91.9437 179.014 91.843 178.771 91.6636 178.591C91.4842 178.412 91.2409 178.311 90.9872 178.311ZM91.306 183.732C91.306 183.816 91.2724 183.897 91.2126 183.957C91.1528 184.017 91.0717 184.051 90.9872 184.051H84.6099C84.5253 184.051 84.4442 184.017 84.3844 183.957C84.3246 183.897 84.291 183.816 84.291 183.732V179.268C84.291 179.183 84.3246 179.102 84.3844 179.042C84.4442 178.982 84.5253 178.949 84.6099 178.949H85.8854C85.9379 178.949 85.9896 178.936 86.0359 178.911C86.0822 178.886 86.1217 178.851 86.1508 178.807L86.6937 177.992H88.903L89.4463 178.807C89.4754 178.851 89.5149 178.886 89.5612 178.911C89.6075 178.936 89.6592 178.949 89.7117 178.949H90.9872C91.0717 178.949 91.1528 178.982 91.2126 179.042C91.2724 179.102 91.306 179.183 91.306 179.268V183.732ZM87.7985 179.587C87.4517 179.587 87.1126 179.689 86.8242 179.882C86.5358 180.075 86.311 180.349 86.1783 180.669C86.0455 180.99 86.0108 181.342 86.0785 181.682C86.1462 182.023 86.3132 182.335 86.5584 182.58C86.8037 182.826 87.1162 182.993 87.4564 183.06C87.7966 183.128 88.1492 183.093 88.4697 182.961C88.7901 182.828 89.064 182.603 89.2567 182.315C89.4494 182.026 89.5523 181.687 89.5523 181.34C89.5517 180.875 89.3668 180.43 89.038 180.101C88.7093 179.772 88.2635 179.587 87.7985 179.587ZM87.7985 182.456C87.5778 182.456 87.362 182.391 87.1785 182.268C86.995 182.146 86.8519 181.971 86.7675 181.767C86.683 181.563 86.6609 181.339 86.704 181.123C86.747 180.906 86.8533 180.707 87.0094 180.551C87.1655 180.395 87.3643 180.289 87.5808 180.246C87.7973 180.203 88.0217 180.225 88.2256 180.309C88.4295 180.394 88.6038 180.537 88.7265 180.72C88.8491 180.904 88.9145 181.12 88.9145 181.34C88.9145 181.636 88.797 181.92 88.5877 182.129C88.3784 182.339 88.0945 182.456 87.7985 182.456Z" fill="black"/>
</g>
<path opacity="0.5" d="M94.7252 183.028L95.4939 182.925C95.5821 183.361 95.7316 183.676 95.9423 183.869C96.1558 184.06 96.4149 184.155 96.7195 184.155C97.0811 184.155 97.3857 184.03 97.6334 183.78C97.8839 183.529 98.0092 183.219 98.0092 182.849C98.0092 182.496 97.8939 182.205 97.6633 181.977C97.4327 181.747 97.1394 181.632 96.7835 181.632C96.6383 181.632 96.4576 181.66 96.2412 181.717L96.3266 181.042C96.3778 181.048 96.4191 181.051 96.4504 181.051C96.7778 181.051 97.0725 180.965 97.3344 180.795C97.5964 180.624 97.7273 180.36 97.7273 180.004C97.7273 179.723 97.6319 179.489 97.4412 179.304C97.2504 179.119 97.0042 179.027 96.7024 179.027C96.4035 179.027 96.1544 179.121 95.9551 179.308C95.7558 179.496 95.6277 179.778 95.5707 180.154L94.802 180.017C94.896 179.502 95.1095 179.103 95.4426 178.822C95.7757 178.537 96.1899 178.395 96.6853 178.395C97.027 178.395 97.3416 178.469 97.6291 178.617C97.9166 178.762 98.1359 178.961 98.2867 179.214C98.4405 179.468 98.5174 179.737 98.5174 180.022C98.5174 180.292 98.4448 180.538 98.2996 180.76C98.1544 180.982 97.9394 181.159 97.6547 181.29C98.0248 181.375 98.3124 181.553 98.5174 181.824C98.7223 182.091 98.8248 182.427 98.8248 182.832C98.8248 183.378 98.6255 183.842 98.227 184.224C97.8284 184.602 97.3245 184.792 96.7152 184.792C96.1657 184.792 95.7088 184.628 95.3444 184.301C94.9828 183.973 94.7764 183.549 94.7252 183.028Z" fill="black"/>
<rect x="107.01" y="175.045" width="30.0171" height="12.2712" rx="1.09324" fill="#FFD4D4"/>
<rect x="107.01" y="175.045" width="30.0171" height="12.2712" rx="1.09324" stroke="#FF1313" stroke-width="0.728828"/>
<path d="M111.719 184.681V178.42H112.548V180.991H115.802V178.42H116.63V184.681H115.802V181.73H112.548V184.681H111.719ZM118.155 184.681V178.42H118.983V184.681H118.155ZM123.378 182.225V181.491L126.03 181.486V183.809C125.623 184.134 125.203 184.379 124.77 184.544C124.337 184.706 123.893 184.787 123.438 184.787C122.823 184.787 122.263 184.656 121.759 184.395C121.258 184.13 120.88 183.748 120.623 183.25C120.367 182.752 120.239 182.195 120.239 181.58C120.239 180.971 120.366 180.403 120.619 179.876C120.875 179.347 121.243 178.954 121.721 178.698C122.199 178.441 122.75 178.313 123.374 178.313C123.826 178.313 124.235 178.387 124.599 178.535C124.966 178.681 125.254 178.884 125.462 179.146C125.67 179.408 125.828 179.75 125.936 180.171L125.188 180.376C125.095 180.057 124.978 179.807 124.838 179.624C124.699 179.442 124.5 179.297 124.24 179.189C123.981 179.078 123.694 179.022 123.378 179.022C122.999 179.022 122.672 179.081 122.396 179.197C122.119 179.311 121.896 179.462 121.725 179.65C121.557 179.838 121.426 180.044 121.332 180.269C121.173 180.656 121.093 181.076 121.093 181.529C121.093 182.087 121.188 182.554 121.379 182.93C121.573 183.306 121.853 183.585 122.221 183.767C122.588 183.949 122.978 184.04 123.391 184.04C123.749 184.04 124.1 183.972 124.441 183.835C124.783 183.696 125.042 183.548 125.218 183.391V182.225H123.378ZM127.281 184.681V178.42H128.109V180.991H131.364V178.42H132.192V184.681H131.364V181.73H128.109V184.681H127.281Z" fill="#FF1313"/>
<g filter="url(#filter1_d_33_1169)">
<rect x="33.1362" y="87.7134" width="187.309" height="48.8315" rx="2" fill="white" shape-rendering="crispEdges"/>
<rect x="33.8651" y="88.4422" width="185.851" height="47.3738" rx="1.27117" stroke="#134DAB" stroke-width="1.45766" shape-rendering="crispEdges"/>
<path opacity="0.5" d="M177.787 107.917H177.018V103.019C176.833 103.195 176.59 103.372 176.288 103.548C175.989 103.725 175.72 103.857 175.481 103.945V103.202C175.911 103 176.287 102.755 176.609 102.468C176.93 102.18 177.158 101.901 177.292 101.631H177.787V107.917ZM179.76 104.829C179.76 104.089 179.836 103.494 179.986 103.044C180.14 102.592 180.367 102.243 180.665 101.998C180.967 101.753 181.346 101.631 181.801 101.631C182.137 101.631 182.432 101.699 182.685 101.836C182.939 101.97 183.148 102.165 183.313 102.421C183.478 102.674 183.608 102.985 183.702 103.352C183.796 103.716 183.843 104.209 183.843 104.829C183.843 105.564 183.767 106.158 183.616 106.61C183.465 107.06 183.239 107.409 182.937 107.656C182.638 107.901 182.26 108.024 181.801 108.024C181.198 108.024 180.724 107.807 180.379 107.375C179.967 106.854 179.76 106.005 179.76 104.829ZM180.55 104.829C180.55 105.857 180.67 106.542 180.909 106.884C181.151 107.222 181.448 107.392 181.801 107.392C182.154 107.392 182.451 107.221 182.69 106.879C182.932 106.538 183.053 105.854 183.053 104.829C183.053 103.799 182.932 103.114 182.69 102.775C182.451 102.437 182.152 102.267 181.793 102.267C181.44 102.267 181.158 102.417 180.947 102.716C180.683 103.097 180.55 103.802 180.55 104.829ZM184.842 107.917V103.382H185.53V104.018C185.672 103.796 185.861 103.618 186.098 103.484C186.334 103.348 186.603 103.279 186.905 103.279C187.241 103.279 187.515 103.349 187.729 103.489C187.945 103.628 188.098 103.823 188.186 104.074C188.545 103.544 189.011 103.279 189.587 103.279C190.036 103.279 190.382 103.405 190.624 103.655C190.866 103.903 190.987 104.286 190.987 104.804V107.917H190.223V105.06C190.223 104.753 190.197 104.532 190.146 104.398C190.098 104.261 190.008 104.152 189.877 104.069C189.746 103.987 189.592 103.945 189.416 103.945C189.097 103.945 188.832 104.052 188.621 104.266C188.411 104.476 188.305 104.815 188.305 105.282V107.917H187.537V104.97C187.537 104.629 187.474 104.372 187.349 104.202C187.224 104.031 187.019 103.945 186.734 103.945C186.517 103.945 186.317 104.002 186.132 104.116C185.949 104.23 185.817 104.397 185.735 104.616C185.652 104.835 185.611 105.151 185.611 105.564V107.917H184.842ZM197.521 107.358C197.236 107.6 196.962 107.77 196.697 107.87C196.435 107.97 196.153 108.019 195.851 108.019C195.353 108.019 194.97 107.898 194.703 107.656C194.435 107.412 194.301 107.1 194.301 106.721C194.301 106.499 194.351 106.297 194.451 106.115C194.553 105.93 194.685 105.782 194.848 105.671C195.013 105.56 195.198 105.476 195.403 105.419C195.554 105.379 195.782 105.34 196.086 105.303C196.707 105.229 197.164 105.141 197.457 105.039C197.46 104.933 197.461 104.866 197.461 104.838C197.461 104.525 197.389 104.304 197.243 104.176C197.047 104.002 196.755 103.916 196.368 103.916C196.006 103.916 195.739 103.98 195.565 104.108C195.394 104.233 195.268 104.456 195.185 104.778L194.434 104.676C194.502 104.354 194.614 104.095 194.771 103.898C194.927 103.699 195.154 103.547 195.45 103.442C195.746 103.333 196.089 103.279 196.479 103.279C196.866 103.279 197.181 103.325 197.423 103.416C197.665 103.507 197.843 103.622 197.957 103.762C198.071 103.898 198.15 104.072 198.196 104.283C198.221 104.414 198.234 104.65 198.234 104.992V106.017C198.234 106.731 198.25 107.184 198.281 107.375C198.315 107.563 198.381 107.743 198.478 107.917H197.675C197.595 107.758 197.544 107.571 197.521 107.358ZM197.457 105.641C197.178 105.755 196.759 105.852 196.201 105.931C195.885 105.977 195.662 106.028 195.531 106.085C195.4 106.142 195.299 106.226 195.228 106.337C195.157 106.445 195.121 106.566 195.121 106.7C195.121 106.905 195.198 107.076 195.352 107.212C195.508 107.349 195.736 107.417 196.035 107.417C196.331 107.417 196.594 107.353 196.825 107.225C197.056 107.094 197.225 106.916 197.333 106.691C197.416 106.518 197.457 106.261 197.457 105.923V105.641ZM199.289 108.293L200.036 108.404C200.068 108.634 200.155 108.802 200.297 108.908C200.488 109.05 200.748 109.121 201.078 109.121C201.434 109.121 201.709 109.05 201.903 108.908C202.096 108.765 202.227 108.566 202.295 108.31C202.335 108.153 202.354 107.824 202.351 107.323C202.015 107.719 201.597 107.917 201.095 107.917C200.472 107.917 199.989 107.692 199.648 107.242C199.306 106.792 199.135 106.253 199.135 105.624C199.135 105.191 199.214 104.792 199.37 104.428C199.527 104.061 199.753 103.777 200.049 103.578C200.348 103.379 200.698 103.279 201.1 103.279C201.635 103.279 202.076 103.496 202.424 103.928V103.382H203.132V107.302C203.132 108.008 203.06 108.508 202.915 108.801C202.772 109.097 202.545 109.331 202.231 109.501C201.921 109.672 201.538 109.758 201.083 109.758C200.542 109.758 200.105 109.635 199.772 109.39C199.439 109.148 199.278 108.782 199.289 108.293ZM199.925 105.568C199.925 106.163 200.043 106.597 200.28 106.871C200.516 107.144 200.812 107.281 201.168 107.281C201.521 107.281 201.817 107.145 202.056 106.875C202.295 106.602 202.415 106.175 202.415 105.594C202.415 105.039 202.291 104.62 202.043 104.338C201.799 104.056 201.503 103.916 201.155 103.916C200.814 103.916 200.523 104.055 200.284 104.334C200.045 104.61 199.925 105.022 199.925 105.568ZM204.012 105.649C204.012 104.81 204.246 104.187 204.713 103.783C205.103 103.447 205.578 103.279 206.139 103.279C206.762 103.279 207.272 103.484 207.668 103.894C208.063 104.301 208.261 104.865 208.261 105.585C208.261 106.169 208.173 106.629 207.997 106.965C207.823 107.298 207.568 107.557 207.232 107.742C206.899 107.927 206.535 108.019 206.139 108.019C205.504 108.019 204.99 107.816 204.597 107.409C204.207 107.002 204.012 106.415 204.012 105.649ZM204.802 105.649C204.802 106.23 204.929 106.666 205.182 106.956C205.436 107.244 205.755 107.387 206.139 107.387C206.52 107.387 206.838 107.242 207.091 106.952C207.345 106.661 207.471 106.219 207.471 105.624C207.471 105.063 207.343 104.639 207.087 104.351C206.834 104.061 206.518 103.916 206.139 103.916C205.755 103.916 205.436 104.059 205.182 104.347C204.929 104.634 204.802 105.069 204.802 105.649Z" fill="black"/>
<path d="M56.1844 104.123L64.0503 117.747C64.1702 117.955 64.2333 118.19 64.2333 118.43C64.2333 118.67 64.1702 118.906 64.0503 119.113C63.9303 119.321 63.7578 119.494 63.5501 119.614C63.3424 119.734 63.1067 119.797 62.8668 119.797H47.1351C46.8952 119.797 46.6595 119.734 46.4518 119.614C46.2441 119.494 46.0716 119.321 45.9516 119.113C45.8317 118.906 45.7686 118.67 45.7686 118.43C45.7686 118.19 45.8317 117.955 45.9516 117.747L53.8175 104.123C54.3432 103.212 55.6578 103.212 56.1844 104.123ZM55.0009 114.921C54.7593 114.921 54.5276 115.017 54.3568 115.188C54.1859 115.358 54.0899 115.59 54.0899 115.832C54.0899 116.073 54.1859 116.305 54.3568 116.476C54.5276 116.647 54.7593 116.743 55.0009 116.743C55.2426 116.743 55.4743 116.647 55.6451 116.476C55.816 116.305 55.912 116.073 55.912 115.832C55.912 115.59 55.816 115.358 55.6451 115.188C55.4743 115.017 55.2426 114.921 55.0009 114.921ZM55.0009 108.544C54.7778 108.544 54.5624 108.626 54.3957 108.774C54.2289 108.922 54.1224 109.126 54.0963 109.348L54.0899 109.455V113.099C54.0902 113.331 54.1791 113.554 54.3385 113.723C54.4979 113.892 54.7158 113.994 54.9476 114.007C55.1794 114.021 55.4076 113.945 55.5857 113.796C55.7637 113.647 55.8782 113.436 55.9056 113.205L55.912 113.099V109.455C55.912 109.213 55.816 108.981 55.6451 108.81C55.4743 108.64 55.2426 108.544 55.0009 108.544Z" fill="#FF1313"/>
<path d="M78.3769 108.188V100.944H79.8517V106.957H83.5186V108.188H78.3769ZM87.6289 106.504L89.0239 106.738C88.8446 107.25 88.5606 107.64 88.172 107.909C87.7867 108.175 87.3034 108.308 86.7222 108.308C85.8021 108.308 85.1212 108.007 84.6794 107.406C84.3307 106.924 84.1563 106.316 84.1563 105.582C84.1563 104.705 84.3855 104.02 84.8439 103.525C85.3022 103.026 85.8818 102.777 86.5827 102.777C87.3698 102.777 87.991 103.038 88.446 103.56C88.9011 104.078 89.1186 104.873 89.0987 105.946H85.5912C85.6012 106.361 85.7141 106.685 85.93 106.918C86.1459 107.147 86.4149 107.261 86.7371 107.261C86.9563 107.261 87.1407 107.202 87.2901 107.082C87.4396 106.962 87.5525 106.77 87.6289 106.504ZM87.7086 105.089C87.6987 104.684 87.594 104.377 87.3948 104.167C87.1955 103.955 86.953 103.848 86.6674 103.848C86.3618 103.848 86.1093 103.96 85.9101 104.182C85.7108 104.405 85.6128 104.707 85.6161 105.089H87.7086ZM91.6994 108.188L89.567 102.897H91.0368L92.0332 105.597L92.3222 106.499C92.3986 106.27 92.4467 106.119 92.4667 106.046C92.5132 105.896 92.563 105.747 92.6161 105.597L93.6225 102.897H95.0624L92.9599 108.188H91.6994ZM95.9243 102.179V100.884H97.3243V102.179H95.9243ZM95.9243 108.188V102.897H97.3243V108.188H95.9243ZM103.577 108.188H102.177V105.488C102.177 104.916 102.147 104.548 102.087 104.382C102.028 104.212 101.93 104.081 101.793 103.988C101.661 103.895 101.499 103.848 101.31 103.848C101.068 103.848 100.85 103.915 100.657 104.048C100.465 104.181 100.332 104.357 100.259 104.576C100.189 104.795 100.154 105.2 100.154 105.792V108.188H98.7542V102.897H100.055V103.674C100.516 103.076 101.098 102.777 101.798 102.777C102.107 102.777 102.39 102.834 102.645 102.947C102.901 103.056 103.094 103.197 103.223 103.37C103.356 103.543 103.447 103.739 103.497 103.958C103.55 104.177 103.577 104.491 103.577 104.9V108.188ZM108.066 106.504L109.461 106.738C109.282 107.25 108.998 107.64 108.609 107.909C108.224 108.175 107.74 108.308 107.159 108.308C106.239 108.308 105.558 108.007 105.117 107.406C104.768 106.924 104.593 106.316 104.593 105.582C104.593 104.705 104.823 104.02 105.281 103.525C105.739 103.026 106.319 102.777 107.02 102.777C107.807 102.777 108.428 103.038 108.883 103.56C109.338 104.078 109.556 104.873 109.536 105.946H106.028C106.038 106.361 106.151 106.685 106.367 106.918C106.583 107.147 106.852 107.261 107.174 107.261C107.393 107.261 107.578 107.202 107.727 107.082C107.877 106.962 107.99 106.77 108.066 106.504ZM108.146 105.089C108.136 104.684 108.031 104.377 107.832 104.167C107.633 103.955 107.39 103.848 107.104 103.848C106.799 103.848 106.546 103.96 106.347 104.182C106.148 104.405 106.05 104.707 106.053 105.089H108.146ZM113.541 108.188V100.884H118.549V102.12H115.016V103.848H118.065V105.084H115.016V108.188H113.541ZM119.759 108.188V100.884H121.159V108.188H119.759ZM122.275 105.468C122.275 105.003 122.39 104.553 122.619 104.118C122.848 103.682 123.172 103.35 123.591 103.121C124.012 102.892 124.482 102.777 125.001 102.777C125.801 102.777 126.457 103.038 126.969 103.56C127.48 104.078 127.736 104.734 127.736 105.527C127.736 106.328 127.477 106.992 126.959 107.52C126.444 108.045 125.794 108.308 125.011 108.308C124.526 108.308 124.062 108.198 123.621 107.979C123.182 107.76 122.848 107.439 122.619 107.017C122.39 106.592 122.275 106.076 122.275 105.468ZM123.71 105.542C123.71 106.067 123.835 106.469 124.084 106.748C124.333 107.027 124.64 107.167 125.006 107.167C125.371 107.167 125.677 107.027 125.922 106.748C126.171 106.469 126.296 106.064 126.296 105.532C126.296 105.014 126.171 104.616 125.922 104.337C125.677 104.058 125.371 103.918 125.006 103.918C124.64 103.918 124.333 104.058 124.084 104.337C123.835 104.616 123.71 105.018 123.71 105.542ZM128.513 105.468C128.513 105.003 128.628 104.553 128.857 104.118C129.086 103.682 129.41 103.35 129.828 103.121C130.25 102.892 130.72 102.777 131.238 102.777C132.039 102.777 132.695 103.038 133.206 103.56C133.718 104.078 133.974 104.734 133.974 105.527C133.974 106.328 133.714 106.992 133.196 107.52C132.682 108.045 132.032 108.308 131.248 108.308C130.763 108.308 130.3 108.198 129.858 107.979C129.42 107.76 129.086 107.439 128.857 107.017C128.628 106.592 128.513 106.076 128.513 105.468ZM129.948 105.542C129.948 106.067 130.072 106.469 130.322 106.748C130.571 107.027 130.878 107.167 131.243 107.167C131.609 107.167 131.914 107.027 132.16 106.748C132.409 106.469 132.534 106.064 132.534 105.532C132.534 105.014 132.409 104.616 132.16 104.337C131.914 104.058 131.609 103.918 131.243 103.918C130.878 103.918 130.571 104.058 130.322 104.337C130.072 104.616 129.948 105.018 129.948 105.542ZM136.415 108.188H135.015V102.897H136.315V103.649C136.538 103.294 136.737 103.06 136.913 102.947C137.092 102.834 137.295 102.777 137.521 102.777C137.84 102.777 138.147 102.865 138.443 103.041L138.009 104.262C137.773 104.109 137.554 104.033 137.352 104.033C137.156 104.033 136.989 104.088 136.853 104.197C136.717 104.304 136.609 104.498 136.529 104.78C136.453 105.062 136.415 105.654 136.415 106.554V108.188ZM146.32 106.888V108.188H141.412C141.465 107.696 141.625 107.231 141.89 106.793C142.156 106.351 142.681 105.767 143.465 105.039C144.096 104.451 144.483 104.053 144.626 103.843C144.818 103.555 144.915 103.269 144.915 102.987C144.915 102.674 144.83 102.435 144.66 102.269C144.494 102.1 144.264 102.015 143.968 102.015C143.676 102.015 143.443 102.103 143.27 102.279C143.098 102.455 142.998 102.747 142.971 103.156L141.576 103.016C141.659 102.246 141.92 101.693 142.359 101.357C142.797 101.022 143.345 100.854 144.003 100.854C144.724 100.854 145.29 101.048 145.702 101.437C146.114 101.826 146.32 102.309 146.32 102.887C146.32 103.216 146.26 103.53 146.14 103.829C146.024 104.124 145.838 104.435 145.582 104.76C145.413 104.976 145.107 105.287 144.665 105.692C144.224 106.097 143.943 106.366 143.823 106.499C143.707 106.632 143.613 106.761 143.539 106.888H146.32Z" fill="black"/>
<rect x="77.9591" y="114.552" width="24.6784" height="12.2712" rx="1.09324" stroke="black" stroke-opacity="0.5" stroke-width="0.728828"/>
<g opacity="0.5">
<path d="M90.2581 117.818H89.1533L88.61 117.004C88.5809 116.96 88.5415 116.924 88.4953 116.9C88.449 116.875 88.3974 116.862 88.345 116.862H85.7941C85.7416 116.862 85.69 116.875 85.6438 116.9C85.5975 116.924 85.5581 116.96 85.529 117.004L84.9854 117.818H83.8809C83.6272 117.818 83.3839 117.919 83.2045 118.099C83.0251 118.278 82.9243 118.521 82.9243 118.775V123.239C82.9243 123.493 83.0251 123.736 83.2045 123.915C83.3839 124.095 83.6272 124.196 83.8809 124.196H90.2581C90.5119 124.196 90.7552 124.095 90.9346 123.915C91.114 123.736 91.2147 123.493 91.2147 123.239V118.775C91.2147 118.521 91.114 118.278 90.9346 118.099C90.7552 117.919 90.5119 117.818 90.2581 117.818ZM90.577 123.239C90.577 123.324 90.5434 123.405 90.4836 123.465C90.4238 123.524 90.3427 123.558 90.2581 123.558H83.8809C83.7963 123.558 83.7152 123.524 83.6554 123.465C83.5956 123.405 83.562 123.324 83.562 123.239V118.775C83.562 118.69 83.5956 118.609 83.6554 118.55C83.7152 118.49 83.7963 118.456 83.8809 118.456H85.1564C85.2089 118.456 85.2606 118.443 85.3069 118.418C85.3532 118.394 85.3927 118.358 85.4218 118.314L85.9647 117.5H88.174L88.7172 118.314C88.7464 118.358 88.7859 118.394 88.8322 118.418C88.8785 118.443 88.9302 118.456 88.9827 118.456H90.2581C90.3427 118.456 90.4238 118.49 90.4836 118.55C90.5434 118.609 90.577 118.69 90.577 118.775V123.239ZM87.0695 119.094C86.7227 119.094 86.3836 119.197 86.0952 119.389C85.8068 119.582 85.582 119.856 85.4493 120.176C85.3165 120.497 85.2818 120.85 85.3495 121.19C85.4171 121.53 85.5842 121.842 85.8294 122.088C86.0747 122.333 86.3872 122.5 86.7274 122.568C87.0676 122.635 87.4202 122.601 87.7407 122.468C88.0611 122.335 88.335 122.11 88.5277 121.822C88.7204 121.534 88.8233 121.194 88.8233 120.848C88.8227 120.383 88.6378 119.937 88.309 119.608C87.9803 119.279 87.5345 119.094 87.0695 119.094ZM87.0695 121.964C86.8488 121.964 86.633 121.898 86.4495 121.776C86.266 121.653 86.1229 121.479 86.0385 121.275C85.954 121.071 85.9319 120.846 85.975 120.63C86.018 120.413 86.1243 120.215 86.2804 120.058C86.4365 119.902 86.6353 119.796 86.8518 119.753C87.0683 119.71 87.2927 119.732 87.4966 119.817C87.7005 119.901 87.8748 120.044 87.9975 120.228C88.1201 120.411 88.1855 120.627 88.1855 120.848C88.1855 121.144 88.068 121.427 87.8587 121.637C87.6494 121.846 87.3655 121.964 87.0695 121.964Z" fill="black"/>
</g>
<path opacity="0.5" d="M93.9962 122.535L94.7649 122.433C94.8531 122.868 95.0026 123.183 95.2133 123.377C95.4268 123.567 95.6859 123.663 95.9905 123.663C96.352 123.663 96.6567 123.537 96.9044 123.287C97.1549 123.036 97.2802 122.726 97.2802 122.356C97.2802 122.003 97.1649 121.713 96.9343 121.485C96.7036 121.254 96.4104 121.139 96.0545 121.139C95.9093 121.139 95.7286 121.167 95.5122 121.224L95.5976 120.55C95.6488 120.555 95.6901 120.558 95.7214 120.558C96.0488 120.558 96.3435 120.473 96.6054 120.302C96.8674 120.131 96.9983 119.868 96.9983 119.512C96.9983 119.23 96.9029 118.997 96.7122 118.811C96.5214 118.626 96.2752 118.534 95.9734 118.534C95.6745 118.534 95.4254 118.628 95.2261 118.816C95.0268 119.004 94.8987 119.285 94.8417 119.661L94.073 119.525C94.167 119.009 94.3805 118.611 94.7136 118.329C95.0467 118.044 95.4609 117.902 95.9563 117.902C96.298 117.902 96.6125 117.976 96.9001 118.124C97.1876 118.269 97.4069 118.468 97.5577 118.722C97.7115 118.975 97.7884 119.244 97.7884 119.529C97.7884 119.799 97.7158 120.046 97.5706 120.268C97.4254 120.49 97.2104 120.666 96.9257 120.797C97.2958 120.883 97.5834 121.061 97.7884 121.331C97.9933 121.599 98.0958 121.935 98.0958 122.339C98.0958 122.885 97.8965 123.35 97.498 123.731C97.0994 124.11 96.5955 124.299 95.9862 124.299C95.4367 124.299 94.9798 124.135 94.6154 123.808C94.2538 123.481 94.0474 123.056 93.9962 122.535Z" fill="black"/>
<rect x="106.281" y="114.552" width="30.0171" height="12.2712" rx="1.09324" fill="#FFD4D4"/>
<rect x="106.281" y="114.552" width="30.0171" height="12.2712" rx="1.09324" stroke="#FF1313" stroke-width="0.728828"/>
<path d="M110.99 124.188V117.927H111.819V120.498H115.073V117.927H115.901V124.188H115.073V121.237H111.819V124.188H110.99ZM117.426 124.188V117.927H118.254V124.188H117.426ZM122.649 121.732V120.998L125.301 120.994V123.317C124.894 123.641 124.474 123.886 124.041 124.051C123.608 124.214 123.164 124.295 122.709 124.295C122.094 124.295 121.534 124.164 121.03 123.902C120.529 123.637 120.151 123.256 119.894 122.757C119.638 122.259 119.51 121.703 119.51 121.088C119.51 120.478 119.637 119.91 119.89 119.384C120.146 118.854 120.514 118.461 120.992 118.205C121.47 117.949 122.021 117.821 122.645 117.821C123.097 117.821 123.506 117.895 123.87 118.043C124.237 118.188 124.525 118.392 124.733 118.653C124.941 118.915 125.099 119.257 125.207 119.678L124.459 119.883C124.366 119.564 124.249 119.314 124.109 119.132C123.97 118.95 123.771 118.804 123.511 118.696C123.252 118.585 122.965 118.53 122.649 118.53C122.27 118.53 121.943 118.588 121.667 118.705C121.39 118.819 121.167 118.969 120.996 119.157C120.828 119.345 120.697 119.552 120.603 119.777C120.444 120.164 120.364 120.584 120.364 121.036C120.364 121.594 120.459 122.061 120.65 122.437C120.844 122.813 121.124 123.092 121.492 123.274C121.859 123.456 122.249 123.547 122.662 123.547C123.02 123.547 123.371 123.479 123.712 123.342C124.054 123.203 124.313 123.055 124.489 122.898V121.732H122.649ZM126.552 124.188V117.927H127.38V120.498H130.635V117.927H131.463V124.188H130.635V121.237H127.38V124.188H126.552Z" fill="#FF1313"/>
</g>
<g filter="url(#filter2_d_33_1169)">
<rect x="109.86" y="18.4702" width="117.254" height="38.8361" rx="2" fill="#134DAB" shape-rendering="crispEdges"/>
<path d="M123.566 32.343H127.781C128.616 32.343 129.237 32.379 129.645 32.4509C130.057 32.518 130.424 32.6619 130.745 32.8825C131.071 33.1031 131.342 33.398 131.558 33.7672C131.774 34.1317 131.882 34.5417 131.882 34.9973C131.882 35.4912 131.747 35.9444 131.479 36.3568C131.215 36.7692 130.855 37.0785 130.4 37.2847C131.042 37.4717 131.536 37.7906 131.882 38.2414C132.227 38.6922 132.4 39.2221 132.4 39.8311C132.4 40.3106 132.287 40.7782 132.061 41.2338C131.841 41.6845 131.536 42.0466 131.148 42.3199C130.764 42.5885 130.29 42.7539 129.724 42.8163C129.369 42.8546 128.513 42.8786 127.156 42.8882H123.566V32.343ZM125.695 34.0981V36.5366H127.091C127.921 36.5366 128.436 36.5246 128.637 36.5006C129.002 36.4575 129.287 36.3328 129.493 36.1266C129.704 35.9156 129.81 35.6399 129.81 35.2994C129.81 34.9733 129.719 34.7095 129.537 34.5081C129.359 34.3019 129.093 34.1772 128.738 34.1341C128.527 34.1101 127.921 34.0981 126.918 34.0981H125.695ZM125.695 38.2917V41.1115H127.666C128.434 41.1115 128.92 41.0899 129.127 41.0467C129.443 40.9892 129.7 40.8501 129.896 40.6295C130.098 40.4041 130.198 40.1044 130.198 39.7304C130.198 39.4139 130.122 39.1453 129.968 38.9247C129.815 38.7042 129.592 38.5435 129.299 38.4428C129.012 38.3421 128.383 38.2917 127.415 38.2917H125.695ZM134.191 42.8882V32.343H136.212V42.8882H134.191ZM139.801 37.5796L137.967 37.2487C138.173 36.5102 138.528 35.9636 139.032 35.6087C139.535 35.2538 140.283 35.0764 141.276 35.0764C142.177 35.0764 142.849 35.1843 143.29 35.4001C143.731 35.6111 144.04 35.882 144.218 36.2129C144.4 36.539 144.491 37.1408 144.491 38.0184L144.47 40.3778C144.47 41.0491 144.501 41.5455 144.563 41.8668C144.63 42.1833 144.753 42.5237 144.93 42.8882H142.93C142.878 42.7539 142.813 42.5549 142.736 42.2911C142.703 42.1713 142.679 42.0921 142.664 42.0538C142.319 42.3895 141.95 42.6412 141.556 42.8091C141.163 42.9769 140.744 43.0608 140.298 43.0608C139.511 43.0608 138.89 42.8474 138.435 42.4206C137.984 41.9938 137.758 41.4543 137.758 40.8022C137.758 40.3706 137.862 39.9869 138.068 39.6513C138.274 39.3108 138.562 39.0518 138.931 38.8744C139.305 38.6922 139.842 38.5339 140.542 38.3996C141.487 38.2222 142.141 38.0568 142.506 37.9033V37.7019C142.506 37.3135 142.41 37.0377 142.218 36.8747C142.026 36.7068 141.664 36.6229 141.132 36.6229C140.772 36.6229 140.492 36.6949 140.29 36.8387C140.089 36.9778 139.926 37.2248 139.801 37.5796ZM142.506 39.2197C142.247 39.306 141.837 39.4091 141.276 39.529C140.715 39.6489 140.348 39.7663 140.175 39.8814C139.912 40.0685 139.78 40.3058 139.78 40.5936C139.78 40.8765 139.885 41.1211 140.096 41.3273C140.307 41.5335 140.576 41.6366 140.902 41.6366C141.266 41.6366 141.614 41.5167 141.945 41.2769C142.189 41.0947 142.35 40.8717 142.427 40.6079C142.48 40.4353 142.506 40.1068 142.506 39.6225V39.2197ZM153.152 37.5077L151.159 37.8673C151.092 37.4693 150.939 37.1696 150.699 36.9682C150.464 36.7668 150.157 36.6661 149.778 36.6661C149.275 36.6661 148.872 36.8411 148.57 37.1912C148.272 37.5365 148.124 38.1167 148.124 38.9319C148.124 39.8383 148.275 40.4785 148.577 40.8525C148.884 41.2266 149.294 41.4136 149.807 41.4136C150.191 41.4136 150.505 41.3057 150.749 41.0899C150.994 40.8693 151.167 40.4929 151.267 39.9606L153.253 40.2986C153.046 41.2098 152.651 41.8979 152.066 42.3631C151.481 42.8282 150.697 43.0608 149.713 43.0608C148.596 43.0608 147.704 42.7084 147.038 42.0034C146.376 41.2985 146.045 40.3226 146.045 39.0758C146.045 37.8146 146.378 36.8339 147.045 36.1338C147.711 35.4289 148.613 35.0764 149.749 35.0764C150.68 35.0764 151.418 35.2778 151.965 35.6806C152.516 36.0786 152.912 36.6877 153.152 37.5077ZM154.619 42.8882V32.343H156.641V37.9393L159.007 35.249H161.496L158.885 38.04L161.683 42.8882H159.503L157.583 39.457L156.641 40.4425V42.8882H154.619ZM167.013 32.343H171.228C172.063 32.343 172.684 32.379 173.091 32.4509C173.504 32.518 173.871 32.6619 174.192 32.8825C174.518 33.1031 174.789 33.398 175.005 33.7672C175.22 34.1317 175.328 34.5417 175.328 34.9973C175.328 35.4912 175.194 35.9444 174.926 36.3568C174.662 36.7692 174.302 37.0785 173.847 37.2847C174.489 37.4717 174.983 37.7906 175.328 38.2414C175.674 38.6922 175.846 39.2221 175.846 39.8311C175.846 40.3106 175.734 40.7782 175.508 41.2338C175.288 41.6845 174.983 42.0466 174.595 42.3199C174.211 42.5885 173.736 42.7539 173.17 42.8163C172.816 42.8546 171.96 42.8786 170.602 42.8882H167.013V32.343ZM169.142 34.0981V36.5366H170.538C171.367 36.5366 171.883 36.5246 172.084 36.5006C172.449 36.4575 172.734 36.3328 172.94 36.1266C173.151 35.9156 173.257 35.6399 173.257 35.2994C173.257 34.9733 173.166 34.7095 172.983 34.5081C172.806 34.3019 172.54 34.1772 172.185 34.1341C171.974 34.1101 171.367 34.0981 170.365 34.0981H169.142ZM169.142 38.2917V41.1115H171.113C171.88 41.1115 172.367 41.0899 172.573 41.0467C172.89 40.9892 173.146 40.8501 173.343 40.6295C173.544 40.4041 173.645 40.1044 173.645 39.7304C173.645 39.4139 173.568 39.1453 173.415 38.9247C173.262 38.7042 173.039 38.5435 172.746 38.4428C172.458 38.3421 171.83 38.2917 170.861 38.2917H169.142ZM182.061 40.4569L184.075 40.795C183.816 41.5335 183.406 42.0969 182.845 42.4854C182.289 42.869 181.591 43.0608 180.752 43.0608C179.424 43.0608 178.441 42.6268 177.803 41.7589C177.299 41.0635 177.048 40.1859 177.048 39.1262C177.048 37.8602 177.378 36.8699 178.04 36.1554C178.702 35.4361 179.539 35.0764 180.551 35.0764C181.687 35.0764 182.584 35.4528 183.241 36.2057C183.898 36.9538 184.212 38.1023 184.183 39.6513H179.119C179.134 40.2507 179.297 40.7182 179.608 41.0539C179.92 41.3848 180.308 41.5503 180.774 41.5503C181.09 41.5503 181.356 41.4639 181.572 41.2913C181.788 41.1187 181.951 40.8405 182.061 40.4569ZM182.176 38.414C182.162 37.829 182.011 37.3854 181.723 37.0833C181.435 36.7764 181.085 36.6229 180.673 36.6229C180.232 36.6229 179.867 36.7836 179.58 37.1049C179.292 37.4262 179.15 37.8625 179.155 38.414H182.176ZM187.348 37.5796L185.514 37.2487C185.72 36.5102 186.075 35.9636 186.579 35.6087C187.082 35.2538 187.83 35.0764 188.823 35.0764C189.724 35.0764 190.396 35.1843 190.837 35.4001C191.278 35.6111 191.587 35.882 191.765 36.2129C191.947 36.539 192.038 37.1408 192.038 38.0184L192.017 40.3778C192.017 41.0491 192.048 41.5455 192.11 41.8668C192.177 42.1833 192.299 42.5237 192.477 42.8882H190.477C190.424 42.7539 190.36 42.5549 190.283 42.2911C190.249 42.1713 190.225 42.0921 190.211 42.0538C189.866 42.3895 189.497 42.6412 189.103 42.8091C188.71 42.9769 188.29 43.0608 187.845 43.0608C187.058 43.0608 186.437 42.8474 185.981 42.4206C185.531 41.9938 185.305 41.4543 185.305 40.8022C185.305 40.3706 185.408 39.9869 185.615 39.6513C185.821 39.3108 186.109 39.0518 186.478 38.8744C186.852 38.6922 187.389 38.5339 188.089 38.3996C189.034 38.2222 189.688 38.0568 190.053 37.9033V37.7019C190.053 37.3135 189.957 37.0377 189.765 36.8747C189.573 36.7068 189.211 36.6229 188.679 36.6229C188.319 36.6229 188.039 36.6949 187.837 36.8387C187.636 36.9778 187.473 37.2248 187.348 37.5796ZM190.053 39.2197C189.794 39.306 189.384 39.4091 188.823 39.529C188.262 39.6489 187.895 39.7663 187.722 39.8814C187.458 40.0685 187.327 40.3058 187.327 40.5936C187.327 40.8765 187.432 41.1211 187.643 41.3273C187.854 41.5335 188.123 41.6366 188.449 41.6366C188.813 41.6366 189.161 41.5167 189.492 41.2769C189.736 41.0947 189.897 40.8717 189.974 40.6079C190.026 40.4353 190.053 40.1068 190.053 39.6225V39.2197ZM200.986 42.8882H198.965V38.9895C198.965 38.1647 198.922 37.6324 198.836 37.3926C198.749 37.148 198.608 36.9586 198.411 36.8243C198.219 36.6901 197.987 36.6229 197.714 36.6229C197.363 36.6229 197.049 36.7188 196.771 36.9107C196.493 37.1025 196.301 37.3566 196.196 37.6731C196.095 37.9896 196.045 38.5747 196.045 39.4283V42.8882H194.023V35.249H195.901V36.3712C196.567 35.508 197.407 35.0764 198.418 35.0764C198.864 35.0764 199.272 35.1579 199.641 35.321C200.011 35.4792 200.289 35.683 200.476 35.9324C200.668 36.1817 200.799 36.4647 200.871 36.7812C200.948 37.0977 200.986 37.5508 200.986 38.1407V42.8882ZM203.044 34.2132V32.343H205.065V34.2132H203.044ZM203.044 42.8882V35.249H205.065V42.8882H203.044ZM211.568 40.4569L213.582 40.795C213.323 41.5335 212.913 42.0969 212.352 42.4854C211.795 42.869 211.098 43.0608 210.258 43.0608C208.93 43.0608 207.947 42.6268 207.309 41.7589C206.806 41.0635 206.554 40.1859 206.554 39.1262C206.554 37.8602 206.885 36.8699 207.547 36.1554C208.208 35.4361 209.045 35.0764 210.057 35.0764C211.194 35.0764 212.09 35.4528 212.747 36.2057C213.404 36.9538 213.718 38.1023 213.69 39.6513H208.626C208.64 40.2507 208.803 40.7182 209.115 41.0539C209.426 41.3848 209.815 41.5503 210.28 41.5503C210.597 41.5503 210.863 41.4639 211.078 41.2913C211.294 41.1187 211.457 40.8405 211.568 40.4569ZM211.683 38.414C211.668 37.829 211.517 37.3854 211.23 37.0833C210.942 36.7764 210.592 36.6229 210.179 36.6229C209.738 36.6229 209.374 36.7836 209.086 37.1049C208.798 37.4262 208.657 37.8625 208.662 38.414H211.683Z" fill="white"/>
</g>
<defs>
<filter id="filter0_d_33_1169" x="0.338751" y="0.254063" width="249.988" height="236.869" filterUnits="userSpaceOnUse" color-interpolation-filters="sRGB">
<feFlood flood-opacity="0" result="BackgroundImageFix"/>
<feColorMatrix in="SourceAlpha" type="matrix" values="0 0 0 0 0 0 0 0 0 0 0 0 0 0 0 0 0 0 127 0" result="hardAlpha"/>
<feOffset dy="2.91531"/>
<feGaussianBlur stdDeviation="5.83062"/>
<feComposite in2="hardAlpha" operator="out"/>
<feColorMatrix type="matrix" values="0 0 0 0 0 0 0 0 0 0 0 0 0 0 0 0 0 0 0.1 0"/>
<feBlend mode="normal" in2="BackgroundImageFix" result="effect1_dropShadow_33_1169"/>
<feBlend mode="normal" in="SourceGraphic" in2="effect1_dropShadow_33_1169" result="shape"/>
</filter>
<filter id="filter1_d_33_1169" x="21.475" y="78.9674" width="210.631" height="72.154" filterUnits="userSpaceOnUse" color-interpolation-filters="sRGB">
<feFlood flood-opacity="0" result="BackgroundImageFix"/>
<feColorMatrix in="SourceAlpha" type="matrix" values="0 0 0 0 0 0 0 0 0 0 0 0 0 0 0 0 0 0 127 0" result="hardAlpha"/>
<feOffset dy="2.91531"/>
<feGaussianBlur stdDeviation="5.83062"/>
<feComposite in2="hardAlpha" operator="out"/>
<feColorMatrix type="matrix" values="0 0 0 0 0 0 0 0 0 0 0 0 0 0 0 0 0 0 0.1 0"/>
<feBlend mode="normal" in2="BackgroundImageFix" result="effect1_dropShadow_33_1169"/>
<feBlend mode="normal" in="SourceGraphic" in2="effect1_dropShadow_33_1169" result="shape"/>
</filter>
<filter id="filter2_d_33_1169" x="93.0242" y="5.8431" width="150.927" height="72.5082" filterUnits="userSpaceOnUse" color-interpolation-filters="sRGB">
<feFlood flood-opacity="0" result="BackgroundImageFix"/>
<feColorMatrix in="SourceAlpha" type="matrix" values="0 0 0 0 0 0 0 0 0 0 0 0 0 0 0 0 0 0 127 0" result="hardAlpha"/>
<feOffset dy="4.20904"/>
<feGaussianBlur stdDeviation="8.41807"/>
<feComposite in2="hardAlpha" operator="out"/>
<feColorMatrix type="matrix" values="0 0 0 0 0.0745098 0 0 0 0 0.301961 0 0 0 0 0.670588 0 0 0 0.25 0"/>
<feBlend mode="normal" in2="BackgroundImageFix" result="effect1_dropShadow_33_1169"/>
<feBlend mode="normal" in="SourceGraphic" in2="effect1_dropShadow_33_1169" result="shape"/>
</filter>
</defs>
</svg>
