<svg width="26" height="25" viewBox="0 0 26 25" fill="none" xmlns="http://www.w3.org/2000/svg">
<path d="M13 25C6.09625 25 0.5 19.4037 0.5 12.5C0.5 5.59625 6.09625 0 13 0C19.9037 0 25.5 5.59625 25.5 12.5C25.5 19.4037 19.9037 25 13 25ZM13 22.5C15.6522 22.5 18.1957 21.4464 20.0711 19.5711C21.9464 17.6957 23 15.1522 23 12.5C23 9.84783 21.9464 7.3043 20.0711 5.42893C18.1957 3.55357 15.6522 2.5 13 2.5C10.3478 2.5 7.8043 3.55357 5.92893 5.42893C4.05357 7.3043 3 9.84783 3 12.5C3 15.1522 4.05357 17.6957 5.92893 19.5711C7.8043 21.4464 10.3478 22.5 13 22.5ZM13 6.25C13.3315 6.25 13.6495 6.3817 13.8839 6.61612C14.1183 6.85054 14.25 7.16848 14.25 7.5V13.75C14.25 14.0815 14.1183 14.3995 13.8839 14.6339C13.6495 14.8683 13.3315 15 13 15C12.6685 15 12.3505 14.8683 12.1161 14.6339C11.8817 14.3995 11.75 14.0815 11.75 13.75V7.5C11.75 7.16848 11.8817 6.85054 12.1161 6.61612C12.3505 6.3817 12.6685 6.25 13 6.25ZM13 18.75C12.6685 18.75 12.3505 18.6183 12.1161 18.3839C11.8817 18.1495 11.75 17.8315 11.75 17.5C11.75 17.1685 11.8817 16.8505 12.1161 16.6161C12.3505 16.3817 12.6685 16.25 13 16.25C13.3315 16.25 13.6495 16.3817 13.8839 16.6161C14.1183 16.8505 14.25 17.1685 14.25 17.5C14.25 17.8315 14.1183 18.1495 13.8839 18.3839C13.6495 18.6183 13.3315 18.75 13 18.75Z" fill="#FF8C00"/>
</svg>
