<svg width="19" height="19" viewBox="0 0 19 19" fill="none" xmlns="http://www.w3.org/2000/svg">
<path d="M10.6351 9.04382C10.5513 9.12755 10.4378 9.17459 10.3194 9.17459C10.201 9.17459 10.0874 9.12755 10.0037 9.04382C9.91994 8.96009 9.8729 8.84652 9.8729 8.72811C9.8729 8.6097 9.91994 8.49614 10.0037 8.41241L13.5709 4.84512C13.6124 4.80367 13.6616 4.77078 13.7158 4.74834C13.77 4.7259 13.828 4.71436 13.8867 4.71436C13.9453 4.71436 14.0033 4.7259 14.0575 4.74834C14.1117 4.77078 14.1609 4.80367 14.2024 4.84512C14.2438 4.88658 14.2767 4.9358 14.2991 4.98997C14.3216 5.04414 14.3331 5.1022 14.3331 5.16083C14.3331 5.21946 14.3216 5.27752 14.2991 5.33169C14.2767 5.38586 14.2438 5.43507 14.2024 5.47653L10.6351 9.04382ZM5.28415 14.3947C5.24269 14.4362 5.19347 14.4691 5.1393 14.4915C5.08514 14.514 5.02708 14.5255 4.96845 14.5255C4.90981 14.5255 4.85176 14.514 4.79759 14.4915C4.74342 14.4691 4.6942 14.4362 4.65274 14.3947C4.61128 14.3533 4.5784 14.3041 4.55596 14.2499C4.53352 14.1957 4.52197 14.1377 4.52197 14.079C4.52197 14.0204 4.53352 13.9623 4.55596 13.9082C4.5784 13.854 4.61128 13.8048 4.65274 13.7633L8.22002 10.196C8.30375 10.1123 8.41732 10.0653 8.53573 10.0653C8.65414 10.0653 8.7677 10.1123 8.85143 10.196C8.93516 10.2798 8.9822 10.3933 8.9822 10.5118C8.9822 10.6302 8.93516 10.7437 8.85143 10.8275L5.28415 14.3947Z" fill="black"/>
<path d="M4.96837 14.5251C4.85011 14.5251 4.73669 14.4781 4.65307 14.3945C4.56944 14.3109 4.52246 14.1975 4.52246 14.0792C4.52246 13.9609 4.56944 13.8475 4.65307 13.7639C4.73669 13.6803 4.85011 13.6333 4.96837 13.6333H8.53565C8.65392 13.6333 8.76734 13.6803 8.85096 13.7639C8.93458 13.8475 8.98156 13.9609 8.98156 14.0792C8.98156 14.1975 8.93458 14.3109 8.85096 14.3945C8.76734 14.4781 8.65392 14.5251 8.53565 14.5251H4.96837Z" fill="black"/>
<path d="M5.41453 14.0792C5.41453 14.1975 5.36755 14.3109 5.28392 14.3945C5.2003 14.4781 5.08688 14.5251 4.96862 14.5251C4.85035 14.5251 4.73693 14.4781 4.65331 14.3945C4.56968 14.3109 4.52271 14.1975 4.52271 14.0792V10.5119C4.52271 10.3937 4.56968 10.2802 4.65331 10.1966C4.73693 10.113 4.85035 10.066 4.96862 10.066C5.08688 10.066 5.2003 10.113 5.28392 10.1966C5.36755 10.2802 5.41453 10.3937 5.41453 10.5119V14.0792ZM14.3327 8.72828C14.3327 8.84654 14.2858 8.95996 14.2021 9.04359C14.1185 9.12721 14.0051 9.17419 13.8868 9.17419C13.7686 9.17419 13.6551 9.12721 13.5715 9.04359C13.4879 8.95996 13.4409 8.84654 13.4409 8.72828V5.161C13.4409 5.04274 13.4879 4.92932 13.5715 4.84569C13.6551 4.76207 13.7686 4.71509 13.8868 4.71509C14.0051 4.71509 14.1185 4.76207 14.2021 4.84569C14.2858 4.92932 14.3327 5.04274 14.3327 5.161V8.72828Z" fill="black"/>
<path d="M10.3192 5.60691C10.2009 5.60691 10.0875 5.55993 10.0039 5.4763C9.92027 5.39268 9.87329 5.27926 9.87329 5.161C9.87329 5.04274 9.92027 4.92932 10.0039 4.84569C10.0875 4.76207 10.2009 4.71509 10.3192 4.71509H13.8865C14.0047 4.71509 14.1182 4.76207 14.2018 4.84569C14.2854 4.92932 14.3324 5.04274 14.3324 5.161C14.3324 5.27926 14.2854 5.39268 14.2018 5.4763C14.1182 5.55993 14.0047 5.60691 13.8865 5.60691H10.3192Z" fill="black"/>
</svg>
