<svg width="22" height="27" viewBox="0 0 22 27" fill="none" xmlns="http://www.w3.org/2000/svg">
<path d="M11 8.50007V13.5001M11 18.5001H11.0125M21 14.7501C21 21.0001 16.625 24.1251 11.425 25.9376C11.1527 26.0298 10.8569 26.0254 10.5875 25.9251C5.375 24.1251 1 21.0001 1 14.7501V6.00007C1 5.66855 1.1317 5.35061 1.36612 5.11619C1.60054 4.88177 1.91848 4.75007 2.25 4.75007C4.75 4.75007 7.875 3.25007 10.05 1.35007C10.3148 1.12382 10.6517 0.999512 11 0.999512C11.3483 0.999512 11.6852 1.12382 11.95 1.35007C14.1375 3.26257 17.25 4.75007 19.75 4.75007C20.0815 4.75007 20.3995 4.88177 20.6339 5.11619C20.8683 5.35061 21 5.66855 21 6.00007V14.7501Z" stroke="#E3C800" stroke-width="2" stroke-linecap="round" stroke-linejoin="round"/>
</svg>
