<svg width="26" height="23" viewBox="0 0 26 23" fill="none" xmlns="http://www.w3.org/2000/svg">
<path d="M14.6237 1.43506L25.4162 20.1276C25.5808 20.4126 25.6674 20.7359 25.6674 21.065C25.6674 21.3942 25.5808 21.7175 25.4162 22.0025C25.2517 22.2876 25.015 22.5243 24.73 22.6888C24.4449 22.8534 24.1216 22.94 23.7925 22.9401H2.20747C1.87834 22.94 1.55502 22.8534 1.26999 22.6888C0.984959 22.5243 0.74827 22.2876 0.58371 22.0025C0.41915 21.7175 0.332517 21.3942 0.33252 21.065C0.332522 20.7359 0.419158 20.4126 0.583722 20.1276L11.3762 1.43506C12.0975 0.185059 13.9012 0.185059 14.6237 1.43506ZM13 16.2501C12.6685 16.2501 12.3505 16.3818 12.1161 16.6162C11.8817 16.8506 11.75 17.1685 11.75 17.5001C11.75 17.8316 11.8817 18.1495 12.1161 18.3839C12.3505 18.6184 12.6685 18.7501 13 18.7501C13.3315 18.7501 13.6494 18.6184 13.8839 18.3839C14.1183 18.1495 14.25 17.8316 14.25 17.5001C14.25 17.1685 14.1183 16.8506 13.8839 16.6162C13.6494 16.3818 13.3315 16.2501 13 16.2501ZM13 7.50006C12.6938 7.5001 12.3983 7.6125 12.1695 7.81595C11.9407 8.0194 11.7945 8.29975 11.7587 8.60381L11.75 8.75006V13.7501C11.7503 14.0687 11.8723 14.3751 12.091 14.6068C12.3097 14.8384 12.6087 14.9779 12.9267 14.9965C13.2448 15.0152 13.5579 14.9117 13.8023 14.7072C14.0466 14.5027 14.2036 14.2127 14.2412 13.8963L14.25 13.7501V8.75006C14.25 8.41854 14.1183 8.1006 13.8839 7.86618C13.6494 7.63176 13.3315 7.50006 13 7.50006Z" fill="#FF1313"/>
</svg>
