<svg width="13" height="14" viewBox="0 0 13 14" fill="none" xmlns="http://www.w3.org/2000/svg">
<g opacity="0.5">
<path d="M10.4583 3.4171H9.10638L8.44162 2.42021C8.40601 2.36683 8.35778 2.32306 8.3012 2.29277C8.24463 2.26249 8.18146 2.24662 8.11729 2.24658H4.99592C4.93175 2.24662 4.86858 2.26249 4.81201 2.29277C4.75543 2.32306 4.7072 2.36683 4.67159 2.42021L4.00635 3.4171H2.65489C2.34445 3.4171 2.04672 3.54042 1.82721 3.75993C1.6077 3.97945 1.48438 4.27717 1.48438 4.58761V10.05C1.48438 10.3605 1.6077 10.6582 1.82721 10.8777C2.04672 11.0972 2.34445 11.2205 2.65489 11.2205H10.4583C10.7688 11.2205 11.0665 11.0972 11.286 10.8777C11.5055 10.6582 11.6288 10.3605 11.6288 10.05V4.58761C11.6288 4.27717 11.5055 3.97945 11.286 3.75993C11.0665 3.54042 10.7688 3.4171 10.4583 3.4171ZM10.8485 10.05C10.8485 10.1535 10.8074 10.2527 10.7342 10.3259C10.661 10.3991 10.5618 10.4402 10.4583 10.4402H2.65489C2.55141 10.4402 2.45217 10.3991 2.379 10.3259C2.30583 10.2527 2.26472 10.1535 2.26472 10.05V4.58761C2.26472 4.48413 2.30583 4.38489 2.379 4.31172C2.45217 4.23855 2.55141 4.19744 2.65489 4.19744H4.21558C4.27983 4.19748 4.3431 4.18165 4.39976 4.15137C4.45643 4.12108 4.50473 4.07726 4.54039 4.02381L5.20466 3.02693H7.90806L8.57282 4.02381C8.60848 4.07726 8.65678 4.12108 8.71345 4.15137C8.77011 4.18165 8.83338 4.19748 8.89763 4.19744H10.4583C10.5618 4.19744 10.661 4.23855 10.7342 4.31172C10.8074 4.38489 10.8485 4.48413 10.8485 4.58761V10.05ZM6.5566 4.97778C6.13218 4.97778 5.71728 5.10364 5.36438 5.33944C5.01148 5.57524 4.73643 5.91039 4.57401 6.30251C4.41159 6.69463 4.36909 7.12611 4.4519 7.54238C4.5347 7.95865 4.73908 8.34102 5.03919 8.64114C5.33931 8.94125 5.72168 9.14563 6.13795 9.22844C6.55422 9.31124 6.9857 9.26874 7.37782 9.10632C7.76994 8.9439 8.10509 8.66885 8.34089 8.31595C8.57669 7.96305 8.70255 7.54815 8.70255 7.12373C8.7019 6.55478 8.47561 6.00933 8.0733 5.60703C7.671 5.20472 7.12555 4.97843 6.5566 4.97778ZM6.5566 8.48933C6.28651 8.48933 6.02249 8.40923 5.79792 8.25918C5.57335 8.10913 5.39831 7.89585 5.29495 7.64632C5.1916 7.39679 5.16455 7.12221 5.21724 6.85731C5.26994 6.59241 5.4 6.34908 5.59098 6.1581C5.78196 5.96712 6.02529 5.83706 6.29019 5.78437C6.55509 5.73167 6.82967 5.75872 7.0792 5.86208C7.32873 5.96543 7.54201 6.14047 7.69206 6.36504C7.84211 6.58961 7.9222 6.85364 7.9222 7.12373C7.9222 7.48591 7.77833 7.83325 7.52223 8.08935C7.26613 8.34545 6.91878 8.48933 6.5566 8.48933Z" fill="black"/>
</g>
</svg>
