<svg width="269" height="224" viewBox="0 0 269 224" fill="none" xmlns="http://www.w3.org/2000/svg">
<g filter="url(#filter0_d_24_2664)">
<rect x="17" y="13" width="234.654" height="189.407" rx="2.10452" fill="white"/>
<rect x="137.484" y="105.073" width="84.1807" height="21.0452" rx="1.57839" fill="#D6FAD1"/>
<rect x="137.484" y="105.073" width="84.1807" height="21.0452" rx="1.57839" stroke="#2EB41A" stroke-width="1.05226"/>
<path d="M144.657 120.595V110.05H149.138C150.265 110.05 151.083 110.146 151.591 110.338C152.104 110.525 152.514 110.86 152.821 111.345C153.128 111.829 153.281 112.383 153.281 113.006C153.281 113.798 153.049 114.452 152.583 114.97C152.118 115.483 151.423 115.807 150.497 115.941C150.958 116.21 151.337 116.505 151.634 116.826C151.936 117.147 152.341 117.718 152.85 118.538L154.137 120.595H151.591L150.051 118.301C149.505 117.481 149.131 116.965 148.929 116.754C148.728 116.538 148.515 116.392 148.289 116.315C148.064 116.234 147.707 116.193 147.217 116.193H146.786V120.595H144.657ZM146.786 114.51H148.361C149.383 114.51 150.02 114.467 150.274 114.38C150.529 114.294 150.728 114.145 150.872 113.934C151.015 113.723 151.087 113.46 151.087 113.143C151.087 112.788 150.991 112.503 150.8 112.287C150.613 112.067 150.346 111.927 150.001 111.87C149.829 111.846 149.311 111.834 148.447 111.834H146.786V114.51ZM155.295 120.595V110.05H163.114V111.834H157.425V114.172H162.719V115.948H157.425V118.818H163.316V120.595H155.295ZM174.631 120.595H172.314L171.394 118.2H167.178L166.308 120.595H164.049L168.157 110.05H170.408L174.631 120.595ZM170.71 116.423L169.257 112.51L167.833 116.423H170.71ZM175.76 110.05H179.651C180.529 110.05 181.198 110.117 181.658 110.251C182.277 110.434 182.807 110.757 183.248 111.223C183.689 111.688 184.025 112.258 184.255 112.934C184.485 113.606 184.6 114.435 184.6 115.423C184.6 116.291 184.492 117.039 184.277 117.668C184.013 118.435 183.636 119.056 183.147 119.531C182.778 119.89 182.279 120.171 181.651 120.372C181.181 120.521 180.553 120.595 179.767 120.595H175.76V110.05ZM177.889 111.834V118.818H179.479C180.073 118.818 180.503 118.785 180.766 118.718C181.112 118.631 181.397 118.485 181.622 118.279C181.853 118.073 182.04 117.735 182.183 117.265C182.327 116.79 182.399 116.145 182.399 115.33C182.399 114.515 182.327 113.889 182.183 113.452C182.04 113.016 181.838 112.676 181.579 112.431C181.32 112.186 180.992 112.021 180.594 111.935C180.296 111.867 179.714 111.834 178.846 111.834H177.889ZM189.182 120.595V116.157L185.32 110.05H187.816L190.297 114.222L192.729 110.05H195.181L191.304 116.171V120.595H189.182Z" fill="#2EB41A"/>
<path opacity="0.75" d="M214.796 112.964L215.57 113.747L211.352 118.009C211.285 118.077 211.204 118.132 211.116 118.169C211.027 118.206 210.932 118.226 210.836 118.226C210.74 118.226 210.646 118.206 210.557 118.169C210.468 118.132 210.388 118.077 210.32 118.009L206.1 113.747L206.874 112.965L210.835 116.965L214.796 112.964Z" fill="#2EB41A"/>
<path d="M32.7621 40.5747L36.8119 30.0295H38.3152L42.6312 40.5747H41.0415L39.8114 37.3809H35.402L34.2439 40.5747H32.7621ZM35.8048 36.2444H39.3798L38.2793 33.324C37.9436 32.4368 37.6942 31.7079 37.5312 31.1373C37.3969 31.8134 37.2075 32.4848 36.9629 33.1513L35.8048 36.2444ZM48.5655 37.7766L49.8387 37.942C49.6996 38.8196 49.3424 39.5077 48.7669 40.0064C48.1963 40.5004 47.4937 40.7473 46.6593 40.7473C45.6139 40.7473 44.7723 40.4069 44.1345 39.7259C43.5015 39.0402 43.185 38.0595 43.185 36.7839C43.185 35.9591 43.3217 35.2374 43.595 34.6188C43.8684 34.0001 44.2832 33.5374 44.8395 33.2305C45.4005 32.9188 46.0095 32.7629 46.6665 32.7629C47.4961 32.7629 48.1747 32.9739 48.7022 33.3959C49.2297 33.8131 49.5678 34.4078 49.7164 35.1798L48.4576 35.374C48.3377 34.8609 48.1243 34.4749 47.8174 34.2159C47.5153 33.957 47.1485 33.8275 46.7169 33.8275C46.0647 33.8275 45.5348 34.0625 45.1272 34.5324C44.7196 34.9976 44.5158 35.7361 44.5158 36.7479C44.5158 37.7742 44.7124 38.5199 45.1056 38.985C45.4988 39.4502 46.0119 39.6828 46.6449 39.6828C47.1533 39.6828 47.5777 39.5269 47.9181 39.2152C48.2586 38.9035 48.4744 38.4239 48.5655 37.7766ZM53.7734 39.4166L53.9604 40.5603C53.596 40.637 53.2699 40.6754 52.9821 40.6754C52.5122 40.6754 52.1477 40.6011 51.8888 40.4524C51.6298 40.3038 51.4476 40.1095 51.3421 39.8698C51.2366 39.6252 51.1838 39.1145 51.1838 38.3376V33.9426H50.2343V32.9356H51.1838V31.0437L52.4714 30.2669V32.9356H53.7734V33.9426H52.4714V38.4096C52.4714 38.7788 52.493 39.0162 52.5362 39.1217C52.5841 39.2272 52.6584 39.3111 52.7591 39.3734C52.8646 39.4358 53.0133 39.467 53.2051 39.467C53.349 39.467 53.5384 39.4502 53.7734 39.4166ZM55.0538 31.5185V30.0295H56.3485V31.5185H55.0538ZM55.0538 40.5747V32.9356H56.3485V40.5747H55.0538ZM57.8447 36.7551C57.8447 35.3405 58.238 34.2927 59.0244 33.6117C59.6814 33.0458 60.4822 32.7629 61.4269 32.7629C62.4771 32.7629 63.3355 33.1082 64.0021 33.7987C64.6687 34.4845 65.0019 35.434 65.0019 36.6472C65.0019 37.6303 64.8533 38.4048 64.556 38.9706C64.2634 39.5317 63.8342 39.9681 63.2684 40.2798C62.7073 40.5915 62.0935 40.7473 61.4269 40.7473C60.3575 40.7473 59.492 40.4045 58.8302 39.7187C58.1732 39.033 57.8447 38.0451 57.8447 36.7551ZM59.1755 36.7551C59.1755 37.7334 59.3889 38.4671 59.8157 38.9562C60.2424 39.4406 60.7795 39.6828 61.4269 39.6828C62.0695 39.6828 62.6042 39.4382 63.031 38.949C63.4578 38.4599 63.6712 37.7142 63.6712 36.712C63.6712 35.7673 63.4554 35.0527 63.0238 34.5684C62.597 34.0793 62.0647 33.8347 61.4269 33.8347C60.7795 33.8347 60.2424 34.0769 59.8157 34.5612C59.3889 35.0456 59.1755 35.7769 59.1755 36.7551ZM66.5269 40.5747V32.9356H67.6922V34.0217C68.2533 33.1825 69.0637 32.7629 70.1235 32.7629C70.5838 32.7629 71.0058 32.8468 71.3895 33.0147C71.7779 33.1777 72.068 33.3935 72.2599 33.6621C72.4517 33.9306 72.5859 34.2495 72.6627 34.6188C72.7106 34.8585 72.7346 35.2781 72.7346 35.8776V40.5747H71.4398V35.9279C71.4398 35.4004 71.3895 35.0072 71.2888 34.7482C71.1881 34.4845 71.0082 34.2759 70.7493 34.1224C70.4951 33.9642 70.1954 33.8851 69.8501 33.8851C69.2987 33.8851 68.8215 34.0601 68.4187 34.4102C68.0207 34.7602 67.8217 35.4244 67.8217 36.4027V40.5747H66.5269Z" fill="black" fill-opacity="0.5"/>
<path d="M235.716 40.5122C235.765 40.5611 235.803 40.6191 235.83 40.683C235.856 40.7469 235.87 40.8153 235.87 40.8845C235.87 40.9536 235.856 41.022 235.83 41.0859C235.803 41.1498 235.765 41.2078 235.716 41.2567C235.667 41.3056 235.609 41.3443 235.545 41.3708C235.481 41.3973 235.413 41.4109 235.343 41.4109C235.274 41.4109 235.206 41.3973 235.142 41.3708C235.078 41.3443 235.02 41.3056 234.971 41.2567L230.608 36.8931L226.245 41.2567C226.147 41.3554 226.013 41.4109 225.873 41.4109C225.733 41.4109 225.6 41.3554 225.501 41.2567C225.402 41.158 225.347 41.0241 225.347 40.8845C225.347 40.7448 225.402 40.6109 225.501 40.5122L229.864 36.1493L225.501 31.7864C225.402 31.6876 225.347 31.5537 225.347 31.4141C225.347 31.2745 225.402 31.1406 225.501 31.0419C225.6 30.9432 225.733 30.8877 225.873 30.8877C226.013 30.8877 226.147 30.9432 226.245 31.0419L230.608 35.4055L234.971 31.0419C235.07 30.9432 235.204 30.8877 235.343 30.8877C235.483 30.8877 235.617 30.9432 235.716 31.0419C235.814 31.1406 235.87 31.2745 235.87 31.4141C235.87 31.5537 235.814 31.6876 235.716 31.7864L231.352 36.1493L235.716 40.5122Z" fill="black"/>
<path d="M33.316 63.499L35.3876 63.2976C35.5123 63.993 35.7641 64.5037 36.1429 64.8298C36.5265 65.1559 37.0421 65.3189 37.6894 65.3189C38.3752 65.3189 38.8907 65.175 39.236 64.8873C39.586 64.5948 39.7611 64.2543 39.7611 63.8659C39.7611 63.6165 39.6867 63.4055 39.5381 63.2329C39.3942 63.0555 39.1401 62.902 38.7756 62.7725C38.5262 62.6862 37.958 62.5327 37.0708 62.3122C35.9295 62.0292 35.1287 61.6816 34.6683 61.2691C34.0209 60.6889 33.6972 59.9816 33.6972 59.1472C33.6972 58.6101 33.8483 58.1089 34.1504 57.6438C34.4573 57.1738 34.8961 56.8166 35.4667 56.572C36.0422 56.3274 36.7351 56.2051 37.5456 56.2051C38.8691 56.2051 39.8642 56.4953 40.5307 57.0755C41.2021 57.6558 41.5546 58.4302 41.5881 59.3989L39.459 59.4924C39.3678 58.9505 39.1712 58.5621 38.8691 58.3271C38.5718 58.0874 38.1234 57.9675 37.524 57.9675C36.9054 57.9675 36.421 58.0946 36.071 58.3487C35.8456 58.5118 35.7329 58.73 35.7329 59.0033C35.7329 59.2527 35.8384 59.4661 36.0494 59.6435C36.3179 59.8689 36.9701 60.1038 38.0059 60.3484C39.0418 60.593 39.8066 60.8471 40.3006 61.1109C40.7993 61.3698 41.1877 61.7271 41.4659 62.1827C41.7488 62.6335 41.8903 63.1921 41.8903 63.8587C41.8903 64.4629 41.7224 65.0288 41.3867 65.5563C41.0511 66.0838 40.5763 66.477 39.9625 66.736C39.3487 66.9901 38.5838 67.1172 37.6679 67.1172C36.3347 67.1172 35.3109 66.8103 34.5964 66.1965C33.8818 65.5779 33.4551 64.6787 33.316 63.499ZM43.6814 66.9302V56.385H51.5003V58.1689H45.8105V60.5067H51.1047V62.2834H45.8105V65.1535H51.7017V66.9302H43.6814ZM53.5288 66.9302V56.385H55.6005L59.9164 63.4271V56.385H61.8945V66.9302H59.7581L55.5069 60.0535V66.9302H53.5288ZM64.1459 56.385H68.0375C68.915 56.385 69.584 56.4521 70.0444 56.5864C70.663 56.7686 71.1929 57.0923 71.634 57.5575C72.0752 58.0226 72.4109 58.5933 72.6411 59.2694C72.8713 59.9408 72.9864 60.7704 72.9864 61.7583C72.9864 62.6263 72.8785 63.3743 72.6627 64.0026C72.3989 64.7698 72.0225 65.3908 71.5333 65.8656C71.1641 66.2252 70.6654 66.5058 70.0372 66.7072C69.5672 66.8558 68.939 66.9302 68.1525 66.9302H64.1459V56.385ZM66.2751 58.1689V65.1535H67.8648C68.4595 65.1535 68.8886 65.1199 69.1524 65.0528C69.4977 64.9664 69.783 64.8202 70.0084 64.614C70.2386 64.4078 70.4256 64.0697 70.5695 63.5997C70.7133 63.125 70.7852 62.48 70.7852 61.6648C70.7852 60.8495 70.7133 60.2237 70.5695 59.7874C70.4256 59.351 70.2242 59.0105 69.9652 58.7659C69.7063 58.5214 69.3778 58.3559 68.9798 58.2696C68.6824 58.2025 68.0998 58.1689 67.2318 58.1689H66.2751ZM78.3597 63.499L80.4313 63.2976C80.556 63.993 80.8077 64.5037 81.1866 64.8298C81.5702 65.1559 82.0857 65.3189 82.7331 65.3189C83.4189 65.3189 83.9344 65.175 84.2797 64.8873C84.6297 64.5948 84.8048 64.2543 84.8048 63.8659C84.8048 63.6165 84.7304 63.4055 84.5818 63.2329C84.4379 63.0555 84.1837 62.902 83.8193 62.7725C83.5699 62.6862 83.0017 62.5327 82.1145 62.3122C80.9732 62.0292 80.1723 61.6816 79.712 61.2691C79.0646 60.6889 78.7409 59.9816 78.7409 59.1472C78.7409 58.6101 78.892 58.1089 79.1941 57.6438C79.501 57.1738 79.9398 56.8166 80.5104 56.572C81.0859 56.3274 81.7788 56.2051 82.5893 56.2051C83.9128 56.2051 84.9079 56.4953 85.5744 57.0755C86.2458 57.6558 86.5983 58.4302 86.6318 59.3989L84.5026 59.4924C84.4115 58.9505 84.2149 58.5621 83.9128 58.3271C83.6155 58.0874 83.1671 57.9675 82.5677 57.9675C81.9491 57.9675 81.4647 58.0946 81.1147 58.3487C80.8893 58.5118 80.7766 58.73 80.7766 59.0033C80.7766 59.2527 80.8821 59.4661 81.0931 59.6435C81.3616 59.8689 82.0138 60.1038 83.0496 60.3484C84.0854 60.593 84.8503 60.8471 85.3442 61.1109C85.843 61.3698 86.2314 61.7271 86.5095 62.1827C86.7925 62.6335 86.9339 63.1921 86.9339 63.8587C86.9339 64.4629 86.7661 65.0288 86.4304 65.5563C86.0947 66.0838 85.62 66.477 85.0062 66.736C84.3923 66.9901 83.6275 67.1172 82.7115 67.1172C81.3784 67.1172 80.3546 66.8103 79.6401 66.1965C78.9255 65.5779 78.4987 64.6787 78.3597 63.499ZM88.725 66.9302V56.385H96.544V58.1689H90.8542V60.5067H96.1484V62.2834H90.8542V65.1535H96.7454V66.9302H88.725ZM105.298 63.0531L107.363 63.7076C107.046 64.8585 106.519 65.7145 105.78 66.2756C105.046 66.8319 104.114 67.11 102.982 67.11C101.582 67.11 100.431 66.6329 99.5292 65.6786C98.6276 64.7195 98.1769 63.4103 98.1769 61.7511C98.1769 59.996 98.63 58.634 99.5364 57.6654C100.443 56.6919 101.634 56.2051 103.111 56.2051C104.401 56.2051 105.449 56.5864 106.255 57.3489C106.734 57.7996 107.094 58.447 107.334 59.291L105.226 59.7945C105.102 59.2479 104.84 58.8163 104.442 58.4998C104.049 58.1833 103.569 58.025 103.003 58.025C102.222 58.025 101.586 58.3056 101.097 58.8666C100.613 59.4277 100.371 60.3364 100.371 61.5928C100.371 62.926 100.611 63.8755 101.09 64.4413C101.57 65.0072 102.193 65.2901 102.96 65.2901C103.526 65.2901 104.013 65.1103 104.421 64.7506C104.828 64.391 105.121 63.8251 105.298 63.0531ZM109.182 56.385H111.312V62.0964C111.312 63.0027 111.338 63.5901 111.391 63.8587C111.482 64.2903 111.698 64.6379 112.038 64.9017C112.383 65.1607 112.853 65.2901 113.448 65.2901C114.052 65.2901 114.508 65.1678 114.815 64.9233C115.122 64.6739 115.306 64.3694 115.369 64.0097C115.431 63.6501 115.462 63.0531 115.462 62.2186V56.385H117.591V61.9237C117.591 63.1897 117.534 64.0841 117.419 64.6068C117.304 65.1295 117.09 65.5707 116.778 65.9303C116.472 66.29 116.059 66.5777 115.541 66.7935C115.023 67.0045 114.347 67.11 113.513 67.11C112.506 67.11 111.741 66.9949 111.218 66.7647C110.7 66.5298 110.29 66.2276 109.988 65.8584C109.686 65.4843 109.487 65.0935 109.391 64.6859C109.252 64.0817 109.182 63.1897 109.182 62.01V56.385ZM119.85 66.9302V56.385H124.331C125.458 56.385 126.276 56.4809 126.784 56.6727C127.297 56.8597 127.707 57.1954 128.014 57.6797C128.321 58.1641 128.475 58.718 128.475 59.3414C128.475 60.1326 128.242 60.7872 127.777 61.3051C127.312 61.8182 126.616 62.1419 125.691 62.2762C126.151 62.5447 126.53 62.8397 126.827 63.161C127.129 63.4822 127.535 64.0529 128.043 64.8729L129.331 66.9302H126.784L125.245 64.6356C124.698 63.8155 124.324 63.3 124.123 63.089C123.921 62.8732 123.708 62.727 123.482 62.6502C123.257 62.5687 122.9 62.528 122.411 62.528H121.979V66.9302H119.85ZM121.979 60.8447H123.554C124.576 60.8447 125.214 60.8016 125.468 60.7153C125.722 60.629 125.921 60.4803 126.065 60.2693C126.209 60.0583 126.281 59.7945 126.281 59.478C126.281 59.1232 126.185 58.8379 125.993 58.6221C125.806 58.4015 125.54 58.2624 125.194 58.2049C125.022 58.1809 124.504 58.1689 123.641 58.1689H121.979V60.8447ZM130.424 66.9302V56.385H132.553V66.9302H130.424ZM136.962 66.9302V58.1689H133.833V56.385H142.214V58.1689H139.092V66.9302H136.962ZM146.364 66.9302V62.492L142.501 56.385H144.997L147.479 60.557L149.91 56.385H152.363L148.486 62.5064V66.9302H146.364Z" fill="black"/>
<rect x="32.7837" y="151.898" width="202.034" height="30.5155" rx="2.10452" fill="#134DAB"/>
<path d="M116.963 168.768L118.279 168.653C118.341 169.181 118.485 169.615 118.71 169.955C118.941 170.291 119.296 170.564 119.775 170.775C120.255 170.981 120.794 171.084 121.394 171.084C121.926 171.084 122.396 171.005 122.803 170.847C123.211 170.689 123.513 170.473 123.71 170.2C123.911 169.922 124.012 169.619 124.012 169.293C124.012 168.962 123.916 168.675 123.724 168.43C123.532 168.181 123.216 167.972 122.775 167.804C122.492 167.694 121.866 167.524 120.897 167.294C119.929 167.059 119.25 166.838 118.862 166.632C118.358 166.368 117.982 166.042 117.732 165.654C117.488 165.26 117.365 164.822 117.365 164.337C117.365 163.805 117.516 163.309 117.819 162.848C118.121 162.383 118.562 162.031 119.142 161.791C119.722 161.551 120.367 161.431 121.077 161.431C121.859 161.431 122.547 161.558 123.141 161.812C123.741 162.062 124.201 162.431 124.523 162.92C124.844 163.409 125.017 163.963 125.04 164.582L123.703 164.683C123.631 164.016 123.386 163.512 122.969 163.172C122.556 162.831 121.945 162.661 121.135 162.661C120.291 162.661 119.674 162.817 119.286 163.129C118.902 163.436 118.71 163.807 118.71 164.244C118.71 164.623 118.847 164.934 119.121 165.179C119.389 165.423 120.089 165.675 121.221 165.934C122.357 166.188 123.137 166.411 123.559 166.603C124.173 166.886 124.626 167.246 124.918 167.682C125.211 168.114 125.357 168.612 125.357 169.178C125.357 169.739 125.196 170.269 124.875 170.768C124.554 171.262 124.091 171.648 123.487 171.926C122.887 172.199 122.211 172.336 121.458 172.336C120.504 172.336 119.703 172.197 119.056 171.919C118.413 171.641 117.907 171.224 117.538 170.667C117.174 170.106 116.982 169.473 116.963 168.768ZM132.327 169.696L133.665 169.862C133.454 170.643 133.063 171.25 132.493 171.682C131.922 172.113 131.193 172.329 130.306 172.329C129.189 172.329 128.301 171.986 127.644 171.3C126.992 170.61 126.666 169.643 126.666 168.401C126.666 167.116 126.997 166.119 127.659 165.409C128.321 164.699 129.179 164.344 130.234 164.344C131.255 164.344 132.09 164.692 132.737 165.387C133.385 166.083 133.708 167.061 133.708 168.322C133.708 168.399 133.706 168.514 133.701 168.668H128.004C128.052 169.507 128.289 170.149 128.716 170.595C129.143 171.041 129.675 171.264 130.313 171.264C130.788 171.264 131.193 171.14 131.529 170.89C131.864 170.641 132.131 170.243 132.327 169.696ZM128.076 167.603H132.342C132.284 166.96 132.121 166.478 131.852 166.157C131.44 165.658 130.905 165.409 130.248 165.409C129.654 165.409 129.153 165.608 128.745 166.006C128.342 166.404 128.119 166.936 128.076 167.603ZM135.298 172.156V164.517H136.463V165.603C137.024 164.764 137.835 164.344 138.895 164.344C139.355 164.344 139.777 164.428 140.161 164.596C140.549 164.759 140.839 164.975 141.031 165.244C141.223 165.512 141.357 165.831 141.434 166.2C141.482 166.44 141.506 166.86 141.506 167.459V172.156H140.211V167.509C140.211 166.982 140.161 166.589 140.06 166.33C139.959 166.066 139.779 165.857 139.52 165.704C139.266 165.546 138.966 165.467 138.621 165.467C138.07 165.467 137.593 165.642 137.19 165.992C136.792 166.342 136.593 167.006 136.593 167.984V172.156H135.298ZM148.454 172.156V171.192C147.97 171.95 147.258 172.329 146.318 172.329C145.709 172.329 145.148 172.161 144.635 171.825C144.126 171.49 143.731 171.022 143.448 170.423C143.17 169.818 143.031 169.126 143.031 168.344C143.031 167.581 143.158 166.891 143.412 166.272C143.666 165.649 144.047 165.172 144.556 164.841C145.064 164.51 145.632 164.344 146.26 164.344C146.721 164.344 147.131 164.443 147.49 164.639C147.85 164.831 148.143 165.083 148.368 165.395V161.611H149.656V172.156H148.454ZM144.361 168.344C144.361 169.322 144.568 170.053 144.98 170.538C145.392 171.022 145.879 171.264 146.44 171.264C147.006 171.264 147.486 171.034 147.879 170.574C148.277 170.109 148.476 169.401 148.476 168.452C148.476 167.406 148.274 166.639 147.872 166.15C147.469 165.661 146.972 165.416 146.383 165.416C145.807 165.416 145.325 165.651 144.937 166.121C144.553 166.591 144.361 167.332 144.361 168.344Z" fill="white"/>
<path d="M33.4187 95.5511L33.9552 92.9246H32.9132V92.0059H34.1401L34.5964 89.7678H32.9132V88.8491H34.7813L35.3177 86.2041H36.2426L35.7062 88.8491H37.6483L38.1847 86.2041H39.1157L38.5793 88.8491H39.646V89.7678H38.3944L37.932 92.0059H39.646V92.9246H37.747L37.2106 95.5511H36.2857L36.816 92.9246H34.88L34.3436 95.5511H33.4187ZM35.065 92.0059H37.0009L37.4634 89.7678H35.5212L35.065 92.0059ZM43.7461 92.123C43.7461 90.9105 44.0831 90.0124 44.7573 89.4287C45.3204 88.9437 46.0068 88.7012 46.8166 88.7012C47.7167 88.7012 48.4525 88.9971 49.0238 89.589C49.5952 90.1768 49.8808 90.9906 49.8808 92.0306C49.8808 92.8732 49.7534 93.537 49.4986 94.022C49.2478 94.503 48.88 94.877 48.3949 95.1442C47.914 95.4114 47.3879 95.5449 46.8166 95.5449C45.8999 95.5449 45.158 95.2511 44.5908 94.6633C44.0277 94.0755 43.7461 93.2287 43.7461 92.123ZM44.8867 92.123C44.8867 92.9616 45.0696 93.5905 45.4355 94.0097C45.8013 94.4249 46.2617 94.6324 46.8166 94.6324C47.3673 94.6324 47.8257 94.4228 48.1915 94.0036C48.5573 93.5843 48.7402 92.9451 48.7402 92.0861C48.7402 91.2763 48.5552 90.6639 48.1853 90.2487C47.8195 89.8295 47.3632 89.6198 46.8166 89.6198C46.2617 89.6198 45.8013 89.8274 45.4355 90.2425C45.0696 90.6577 44.8867 91.2845 44.8867 92.123ZM51.4531 95.397V89.7123H50.4727V88.8491H51.4531V88.1524C51.4531 87.7126 51.4921 87.3858 51.5702 87.1721C51.6771 86.8844 51.8641 86.6521 52.1313 86.4754C52.4026 86.2945 52.7807 86.2041 53.2658 86.2041C53.5781 86.2041 53.9234 86.2411 54.3016 86.3151L54.1351 87.2831C53.9049 87.242 53.6871 87.2214 53.4815 87.2214C53.1445 87.2214 52.9061 87.2933 52.7663 87.4372C52.6266 87.5811 52.5567 87.8503 52.5567 88.2449V88.8491H53.833V89.7123H52.5567V95.397H51.4531ZM57.9516 92.493L59.0799 92.3943C59.1333 92.8465 59.2566 93.2185 59.4498 93.5103C59.6471 93.798 59.9513 94.0323 60.3623 94.2132C60.7734 94.3899 61.2358 94.4783 61.7496 94.4783C62.2058 94.4783 62.6087 94.4105 62.958 94.2748C63.3074 94.1392 63.5664 93.9542 63.7349 93.7199C63.9075 93.4815 63.9939 93.2226 63.9939 92.9431C63.9939 92.6595 63.9117 92.4128 63.7472 92.2032C63.5828 91.9895 63.3115 91.8107 62.9334 91.6668C62.6909 91.5723 62.1545 91.4263 61.3242 91.229C60.4939 91.0276 59.9122 90.8386 59.5793 90.6618C59.1477 90.4357 58.8251 90.1562 58.6113 89.8233C58.4017 89.4862 58.2969 89.1101 58.2969 88.695C58.2969 88.2387 58.4263 87.8133 58.6853 87.4187C58.9443 87.02 59.3224 86.7179 59.8198 86.5124C60.3171 86.3069 60.87 86.2041 61.4783 86.2041C62.1483 86.2041 62.7381 86.313 63.2478 86.5309C63.7616 86.7446 64.1562 87.0611 64.4316 87.4804C64.707 87.8996 64.855 88.3744 64.8755 88.9046L63.7287 88.9909C63.6671 88.4196 63.4575 87.988 63.0999 87.6962C62.7464 87.4043 62.2223 87.2584 61.5276 87.2584C60.8042 87.2584 60.276 87.392 59.9431 87.6592C59.6142 87.9222 59.4498 88.2408 59.4498 88.6148C59.4498 88.9396 59.567 89.2067 59.8013 89.4164C60.0315 89.626 60.6316 89.8418 61.6016 90.0637C62.5758 90.2816 63.2437 90.4727 63.6054 90.6371C64.1316 90.8797 64.52 91.1879 64.7707 91.562C65.0215 91.9319 65.1468 92.3594 65.1468 92.8444C65.1468 93.3253 65.0091 93.7795 64.7337 94.207C64.4583 94.6304 64.0617 94.9613 63.5438 95.1997C63.03 95.434 62.4504 95.5511 61.8051 95.5511C60.9871 95.5511 60.3007 95.4319 59.7458 95.1935C59.195 94.9551 58.7613 94.5975 58.4448 94.1207C58.1325 93.6398 57.968 93.0972 57.9516 92.493ZM71.1213 93.2883L72.2681 93.4302C72.0872 94.1001 71.7522 94.6201 71.2631 94.99C70.7739 95.36 70.1492 95.5449 69.3887 95.5449C68.431 95.5449 67.6706 95.2511 67.1075 94.6633C66.5485 94.0714 66.269 93.2431 66.269 92.1785C66.269 91.077 66.5526 90.222 67.1198 89.6137C67.687 89.0053 68.4228 88.7012 69.3271 88.7012C70.2026 88.7012 70.9178 88.9992 71.4727 89.5952C72.0276 90.1912 72.3051 91.0297 72.3051 92.1107C72.3051 92.1765 72.303 92.2751 72.2989 92.4067H67.4158C67.4569 93.126 67.6603 93.6768 68.0262 94.059C68.392 94.4413 68.8482 94.6324 69.3949 94.6324C69.8018 94.6324 70.1492 94.5256 70.4369 94.3118C70.7246 94.0981 70.9528 93.7569 71.1213 93.2883ZM67.4774 91.4942H71.1336C71.0843 90.9434 70.9445 90.5303 70.7143 90.2549C70.3609 89.8274 69.9025 89.6137 69.3394 89.6137C68.8297 89.6137 68.4002 89.7842 68.0508 90.1254C67.7055 90.4666 67.5144 90.9228 67.4774 91.4942ZM77.9404 92.9986L79.0317 93.1404C78.9125 93.8926 78.6063 94.4824 78.113 94.9099C77.6239 95.3333 77.0217 95.5449 76.3065 95.5449C75.4105 95.5449 74.6891 95.2531 74.1424 94.6694C73.5998 94.0816 73.3286 93.2411 73.3286 92.1477C73.3286 91.4407 73.4457 90.8221 73.68 90.2919C73.9143 89.7616 74.2698 89.365 74.7466 89.1019C75.2276 88.8347 75.7496 88.7012 76.3127 88.7012C77.0238 88.7012 77.6054 88.882 78.0576 89.2437C78.5097 89.6013 78.7995 90.111 78.9269 90.7728L77.8479 90.9393C77.7452 90.4994 77.5623 90.1686 77.2992 89.9466C77.0402 89.7246 76.7258 89.6137 76.3559 89.6137C75.7968 89.6137 75.3426 89.8151 74.9933 90.2179C74.6439 90.6166 74.4692 91.2496 74.4692 92.1169C74.4692 92.9965 74.6377 93.6357 74.9748 94.0344C75.3118 94.4331 75.7516 94.6324 76.2942 94.6324C76.7299 94.6324 77.0937 94.4989 77.3855 94.2317C77.6773 93.9645 77.8623 93.5535 77.9404 92.9986ZM84.2725 95.397V94.4351C83.7628 95.175 83.0702 95.5449 82.1947 95.5449C81.8083 95.5449 81.4466 95.471 81.1095 95.323C80.7766 95.175 80.5279 94.99 80.3635 94.7681C80.2032 94.542 80.0901 94.2666 80.0244 93.9419C79.9792 93.724 79.9566 93.3788 79.9566 92.9061V88.8491H81.0664V92.4807C81.0664 93.0602 81.089 93.4507 81.1342 93.6521C81.2041 93.944 81.352 94.1741 81.5781 94.3427C81.8042 94.5071 82.0837 94.5893 82.4166 94.5893C82.7496 94.5893 83.062 94.505 83.3538 94.3365C83.6456 94.1639 83.8511 93.9316 83.9703 93.6398C84.0937 93.3438 84.1553 92.9164 84.1553 92.3573V88.8491H85.2651V95.397H84.2725ZM86.9976 95.397V88.8491H87.9965V89.8418C88.2513 89.3773 88.4856 89.0711 88.6994 88.9231C88.9172 88.7751 89.1556 88.7012 89.4146 88.7012C89.7886 88.7012 90.1688 88.8204 90.5552 89.0588L90.1729 90.0884C89.9016 89.9281 89.6304 89.8479 89.3591 89.8479C89.1166 89.8479 88.8987 89.9219 88.7055 90.0699C88.5123 90.2138 88.3746 90.4152 88.2924 90.6741C88.1691 91.0687 88.1075 91.5003 88.1075 91.9689V95.397H86.9976ZM91.2211 87.6345V86.3582H92.3309V87.6345H91.2211ZM91.2211 95.397V88.8491H92.3309V95.397H91.2211ZM96.4495 94.4043L96.6098 95.3846C96.2974 95.4504 96.0179 95.4833 95.7713 95.4833C95.3685 95.4833 95.0561 95.4196 94.8341 95.2922C94.6121 95.1647 94.4559 94.9983 94.3655 94.7927C94.2751 94.5831 94.2299 94.1454 94.2299 93.4795V89.7123H93.416V88.8491H94.2299V87.2276L95.3335 86.5617V88.8491H96.4495V89.7123H95.3335V93.5411C95.3335 93.8576 95.352 94.0611 95.389 94.1515C95.4301 94.242 95.4938 94.3139 95.5801 94.3673C95.6706 94.4208 95.798 94.4475 95.9624 94.4475C96.0857 94.4475 96.2481 94.4331 96.4495 94.4043ZM97.4915 97.9187L97.3682 96.8767C97.6107 96.9425 97.8224 96.9754 98.0032 96.9754C98.2498 96.9754 98.4471 96.9343 98.5951 96.852C98.7431 96.7698 98.8643 96.6548 98.9589 96.5068C99.0288 96.3958 99.1418 96.1204 99.298 95.6806C99.3185 95.6189 99.3514 95.5285 99.3966 95.4093L96.9119 88.8491H98.108L99.4706 92.641C99.6474 93.1219 99.8056 93.6275 99.9454 94.1577C100.073 93.648 100.225 93.1506 100.402 92.6656L101.801 88.8491H102.911L100.42 95.508C100.153 96.2273 99.9454 96.7226 99.7974 96.9939C99.6001 97.3597 99.374 97.6269 99.1192 97.7954C98.8643 97.968 98.5602 98.0543 98.2067 98.0543C97.9929 98.0543 97.7545 98.0091 97.4915 97.9187Z" fill="black" fill-opacity="0.5"/>
<path d="M137.525 92.493L138.653 92.3943C138.706 92.8465 138.83 93.2185 139.023 93.5103C139.22 93.798 139.524 94.0323 139.935 94.2132C140.347 94.3899 140.809 94.4783 141.323 94.4783C141.779 94.4783 142.182 94.4105 142.531 94.2748C142.881 94.1392 143.14 93.9542 143.308 93.7199C143.481 93.4815 143.567 93.2226 143.567 92.9431C143.567 92.6595 143.485 92.4128 143.32 92.2032C143.156 91.9895 142.885 91.8107 142.507 91.6668C142.264 91.5723 141.728 91.4263 140.897 91.229C140.067 91.0276 139.485 90.8386 139.152 90.6618C138.721 90.4357 138.398 90.1562 138.184 89.8233C137.975 89.4862 137.87 89.1101 137.87 88.695C137.87 88.2387 138 87.8133 138.258 87.4187C138.517 87.02 138.896 86.7179 139.393 86.5124C139.89 86.3069 140.443 86.2041 141.051 86.2041C141.721 86.2041 142.311 86.313 142.821 86.5309C143.335 86.7446 143.729 87.0611 144.005 87.4804C144.28 87.8996 144.428 88.3744 144.449 88.9046L143.302 88.9909C143.24 88.4196 143.031 87.988 142.673 87.6962C142.32 87.4043 141.795 87.2584 141.101 87.2584C140.377 87.2584 139.849 87.392 139.516 87.6592C139.187 87.9222 139.023 88.2408 139.023 88.6148C139.023 88.9396 139.14 89.2067 139.374 89.4164C139.605 89.626 140.205 89.8418 141.175 90.0637C142.149 90.2816 142.817 90.4727 143.179 90.6371C143.705 90.8797 144.093 91.1879 144.344 91.562C144.595 91.9319 144.72 92.3594 144.72 92.8444C144.72 93.3253 144.582 93.7795 144.307 94.207C144.031 94.6304 143.635 94.9613 143.117 95.1997C142.603 95.434 142.024 95.5511 141.378 95.5511C140.56 95.5511 139.874 95.4319 139.319 95.1935C138.768 94.9551 138.334 94.5975 138.018 94.1207C137.706 93.6398 137.541 93.0972 137.525 92.493ZM150.694 93.2883L151.841 93.4302C151.66 94.1001 151.325 94.6201 150.836 94.99C150.347 95.36 149.722 95.5449 148.962 95.5449C148.004 95.5449 147.244 95.2511 146.681 94.6633C146.122 94.0714 145.842 93.2431 145.842 92.1785C145.842 91.077 146.126 90.222 146.693 89.6137C147.26 89.0053 147.996 88.7012 148.9 88.7012C149.776 88.7012 150.491 88.9992 151.046 89.5952C151.601 90.1912 151.878 91.0297 151.878 92.1107C151.878 92.1765 151.876 92.2751 151.872 92.4067H146.989C147.03 93.126 147.233 93.6768 147.599 94.059C147.965 94.4413 148.421 94.6324 148.968 94.6324C149.375 94.6324 149.722 94.5256 150.01 94.3118C150.298 94.0981 150.526 93.7569 150.694 93.2883ZM147.051 91.4942H150.707C150.657 90.9434 150.518 90.5303 150.288 90.2549C149.934 89.8274 149.476 89.6137 148.913 89.6137C148.403 89.6137 147.973 89.7842 147.624 90.1254C147.279 90.4666 147.088 90.9228 147.051 91.4942ZM157.514 92.9986L158.605 93.1404C158.486 93.8926 158.179 94.4824 157.686 94.9099C157.197 95.3333 156.595 95.5449 155.88 95.5449C154.984 95.5449 154.262 95.2531 153.716 94.6694C153.173 94.0816 152.902 93.2411 152.902 92.1477C152.902 91.4407 153.019 90.8221 153.253 90.2919C153.487 89.7616 153.843 89.365 154.32 89.1019C154.801 88.8347 155.323 88.7012 155.886 88.7012C156.597 88.7012 157.179 88.882 157.631 89.2437C158.083 89.6013 158.373 90.111 158.5 90.7728L157.421 90.9393C157.318 90.4994 157.135 90.1686 156.872 89.9466C156.613 89.7246 156.299 89.6137 155.929 89.6137C155.37 89.6137 154.916 89.8151 154.566 90.2179C154.217 90.6166 154.042 91.2496 154.042 92.1169C154.042 92.9965 154.211 93.6357 154.548 94.0344C154.885 94.4331 155.325 94.6324 155.867 94.6324C156.303 94.6324 156.667 94.4989 156.959 94.2317C157.251 93.9645 157.435 93.5535 157.514 92.9986ZM163.846 95.397V94.4351C163.336 95.175 162.643 95.5449 161.768 95.5449C161.381 95.5449 161.02 95.471 160.683 95.323C160.35 95.175 160.101 94.99 159.937 94.7681C159.776 94.542 159.663 94.2666 159.598 93.9419C159.552 93.724 159.53 93.3788 159.53 92.9061V88.8491H160.64V92.4807C160.64 93.0602 160.662 93.4507 160.707 93.6521C160.777 93.944 160.925 94.1741 161.151 94.3427C161.377 94.5071 161.657 94.5893 161.99 94.5893C162.323 94.5893 162.635 94.505 162.927 94.3365C163.219 94.1639 163.424 93.9316 163.544 93.6398C163.667 93.3438 163.728 92.9164 163.728 92.3573V88.8491H164.838V95.397H163.846ZM166.571 95.397V88.8491H167.57V89.8418C167.824 89.3773 168.059 89.0711 168.273 88.9231C168.49 88.7751 168.729 88.7012 168.988 88.7012C169.362 88.7012 169.742 88.8204 170.128 89.0588L169.746 90.0884C169.475 89.9281 169.204 89.8479 168.932 89.8479C168.69 89.8479 168.472 89.9219 168.279 90.0699C168.085 90.2138 167.948 90.4152 167.866 90.6741C167.742 91.0687 167.681 91.5003 167.681 91.9689V95.397H166.571ZM170.794 87.6345V86.3582H171.904V87.6345H170.794ZM170.794 95.397V88.8491H171.904V95.397H170.794ZM176.023 94.4043L176.183 95.3846C175.871 95.4504 175.591 95.4833 175.344 95.4833C174.942 95.4833 174.629 95.4196 174.407 95.2922C174.185 95.1647 174.029 94.9983 173.939 94.7927C173.848 94.5831 173.803 94.1454 173.803 93.4795V89.7123H172.989V88.8491H173.803V87.2276L174.907 86.5617V88.8491H176.023V89.7123H174.907V93.5411C174.907 93.8576 174.925 94.0611 174.962 94.1515C175.003 94.242 175.067 94.3139 175.153 94.3673C175.244 94.4208 175.371 94.4475 175.536 94.4475C175.659 94.4475 175.821 94.4331 176.023 94.4043ZM177.065 97.9187L176.941 96.8767C177.184 96.9425 177.396 96.9754 177.576 96.9754C177.823 96.9754 178.02 96.9343 178.168 96.852C178.316 96.7698 178.437 96.6548 178.532 96.5068C178.602 96.3958 178.715 96.1204 178.871 95.6806C178.892 95.6189 178.925 95.5285 178.97 95.4093L176.485 88.8491H177.681L179.044 92.641C179.221 93.1219 179.379 93.6275 179.519 94.1577C179.646 93.648 179.798 93.1506 179.975 92.6656L181.374 88.8491H182.484L179.993 95.508C179.726 96.2273 179.519 96.7226 179.371 96.9939C179.173 97.3597 178.947 97.6269 178.692 97.7954C178.437 97.968 178.133 98.0543 177.78 98.0543C177.566 98.0543 177.328 98.0091 177.065 97.9187ZM186.677 92.493L187.805 92.3943C187.859 92.8465 187.982 93.2185 188.175 93.5103C188.372 93.798 188.676 94.0323 189.088 94.2132C189.499 94.3899 189.961 94.4783 190.475 94.4783C190.931 94.4783 191.334 94.4105 191.683 94.2748C192.033 94.1392 192.292 93.9542 192.46 93.7199C192.633 93.4815 192.719 93.2226 192.719 92.9431C192.719 92.6595 192.637 92.4128 192.472 92.2032C192.308 91.9895 192.037 91.8107 191.659 91.6668C191.416 91.5723 190.88 91.4263 190.049 91.229C189.219 91.0276 188.637 90.8386 188.304 90.6618C187.873 90.4357 187.55 90.1562 187.336 89.8233C187.127 89.4862 187.022 89.1101 187.022 88.695C187.022 88.2387 187.152 87.8133 187.41 87.4187C187.669 87.02 188.048 86.7179 188.545 86.5124C189.042 86.3069 189.595 86.2041 190.203 86.2041C190.873 86.2041 191.463 86.313 191.973 86.5309C192.487 86.7446 192.881 87.0611 193.157 87.4804C193.432 87.8996 193.58 88.3744 193.601 88.9046L192.454 88.9909C192.392 88.4196 192.183 87.988 191.825 87.6962C191.472 87.4043 190.947 87.2584 190.253 87.2584C189.529 87.2584 189.001 87.392 188.668 87.6592C188.339 87.9222 188.175 88.2408 188.175 88.6148C188.175 88.9396 188.292 89.2067 188.526 89.4164C188.757 89.626 189.357 89.8418 190.327 90.0637C191.301 90.2816 191.969 90.4727 192.331 90.6371C192.857 90.8797 193.245 91.1879 193.496 91.562C193.747 91.9319 193.872 92.3594 193.872 92.8444C193.872 93.3253 193.734 93.7795 193.459 94.207C193.184 94.6304 192.787 94.9613 192.269 95.1997C191.755 95.434 191.176 95.5511 190.53 95.5511C189.712 95.5511 189.026 95.4319 188.471 95.1935C187.92 94.9551 187.487 94.5975 187.17 94.1207C186.858 93.6398 186.693 93.0972 186.677 92.493ZM197.787 94.4043L197.947 95.3846C197.635 95.4504 197.356 95.4833 197.109 95.4833C196.706 95.4833 196.394 95.4196 196.172 95.2922C195.95 95.1647 195.794 94.9983 195.703 94.7927C195.613 94.5831 195.568 94.1454 195.568 93.4795V89.7123H194.754V88.8491H195.568V87.2276L196.671 86.5617V88.8491H197.787V89.7123H196.671V93.5411C196.671 93.8576 196.69 94.0611 196.727 94.1515C196.768 94.242 196.831 94.3139 196.918 94.3673C197.008 94.4208 197.136 94.4475 197.3 94.4475C197.423 94.4475 197.586 94.4331 197.787 94.4043ZM203.151 94.5893C202.74 94.9387 202.344 95.1853 201.961 95.3292C201.583 95.473 201.176 95.5449 200.74 95.5449C200.021 95.5449 199.468 95.3703 199.082 95.0209C198.696 94.6674 198.502 94.2173 198.502 93.6706C198.502 93.35 198.574 93.0582 198.718 92.7951C198.866 92.5279 199.057 92.3142 199.292 92.1539C199.53 91.9936 199.797 91.8723 200.093 91.7901C200.311 91.7326 200.64 91.6771 201.08 91.6236C201.976 91.5168 202.635 91.3893 203.059 91.2414C203.063 91.0893 203.065 90.9927 203.065 90.9516C203.065 90.4994 202.96 90.1809 202.75 89.9959C202.467 89.7452 202.046 89.6198 201.486 89.6198C200.964 89.6198 200.578 89.7123 200.327 89.8973C200.081 90.0781 199.898 90.4008 199.779 90.8653L198.693 90.7173C198.792 90.2528 198.954 89.8788 199.181 89.5952C199.407 89.3074 199.733 89.0875 200.161 88.9354C200.588 88.7792 201.084 88.7012 201.647 88.7012C202.206 88.7012 202.66 88.7669 203.009 88.8984C203.359 89.03 203.616 89.1965 203.78 89.3979C203.945 89.5952 204.06 89.8459 204.125 90.1501C204.162 90.3391 204.181 90.6803 204.181 91.1735V92.6533C204.181 93.685 204.203 94.3385 204.249 94.6139C204.298 94.8852 204.393 95.1462 204.532 95.397H203.373C203.258 95.1668 203.184 94.8976 203.151 94.5893ZM203.059 92.1107C202.656 92.2751 202.052 92.4149 201.246 92.53C200.79 92.5957 200.467 92.6697 200.278 92.7519C200.089 92.8341 199.943 92.9554 199.84 93.1157C199.738 93.2719 199.686 93.4466 199.686 93.6398C199.686 93.9357 199.797 94.1824 200.019 94.3797C200.245 94.577 200.574 94.6756 201.006 94.6756C201.433 94.6756 201.813 94.5831 202.146 94.3981C202.479 94.2091 202.724 93.9522 202.88 93.6275C202.999 93.3767 203.059 93.0068 203.059 92.5176V92.1107ZM208.33 94.4043L208.491 95.3846C208.178 95.4504 207.899 95.4833 207.652 95.4833C207.249 95.4833 206.937 95.4196 206.715 95.2922C206.493 95.1647 206.337 94.9983 206.246 94.7927C206.156 94.5831 206.111 94.1454 206.111 93.4795V89.7123H205.297V88.8491H206.111V87.2276L207.214 86.5617V88.8491H208.33V89.7123H207.214V93.5411C207.214 93.8576 207.233 94.0611 207.27 94.1515C207.311 94.242 207.375 94.3139 207.461 94.3673C207.551 94.4208 207.679 94.4475 207.843 94.4475C207.967 94.4475 208.129 94.4331 208.33 94.4043ZM213.713 95.397V94.4351C213.203 95.175 212.511 95.5449 211.635 95.5449C211.249 95.5449 210.887 95.471 210.55 95.323C210.217 95.175 209.968 94.99 209.804 94.7681C209.644 94.542 209.531 94.2666 209.465 93.9419C209.42 93.724 209.397 93.3788 209.397 92.9061V88.8491H210.507V92.4807C210.507 93.0602 210.529 93.4507 210.575 93.6521C210.644 93.944 210.792 94.1741 211.018 94.3427C211.245 94.5071 211.524 94.5893 211.857 94.5893C212.19 94.5893 212.502 94.505 212.794 94.3365C213.086 94.1639 213.292 93.9316 213.411 93.6398C213.534 93.3438 213.596 92.9164 213.596 92.3573V88.8491H214.705V95.397H213.713ZM216.006 93.4425L217.104 93.2698C217.166 93.7097 217.336 94.0467 217.616 94.281C217.899 94.5153 218.294 94.6324 218.799 94.6324C219.309 94.6324 219.687 94.5297 219.934 94.3242C220.181 94.1145 220.304 93.87 220.304 93.5905C220.304 93.3397 220.195 93.1424 219.977 92.9986C219.825 92.8999 219.447 92.7745 218.843 92.6225C218.029 92.4169 217.464 92.2402 217.147 92.0922C216.835 91.9401 216.596 91.7326 216.432 91.4695C216.272 91.2023 216.191 90.9084 216.191 90.5878C216.191 90.296 216.257 90.0268 216.389 89.7801C216.524 89.5294 216.707 89.3218 216.937 89.1574C217.11 89.03 217.344 88.9231 217.64 88.8368C217.94 88.7464 218.261 88.7012 218.602 88.7012C219.116 88.7012 219.566 88.7751 219.952 88.9231C220.343 89.0711 220.631 89.2725 220.816 89.5273C221.001 89.7781 221.128 90.1151 221.198 90.5385L220.113 90.6865C220.063 90.3494 219.92 90.0864 219.681 89.8973C219.447 89.7082 219.114 89.6137 218.682 89.6137C218.173 89.6137 217.809 89.6979 217.591 89.8664C217.373 90.035 217.264 90.2323 217.264 90.4583C217.264 90.6022 217.309 90.7317 217.4 90.8468C217.49 90.966 217.632 91.0646 217.825 91.1427C217.936 91.1838 218.263 91.2784 218.806 91.4263C219.591 91.636 220.137 91.8086 220.446 91.9442C220.758 92.0758 221.003 92.269 221.179 92.5238C221.356 92.7787 221.444 93.0952 221.444 93.4733C221.444 93.8432 221.336 94.1926 221.118 94.5215C220.904 94.8462 220.594 95.099 220.187 95.2798C219.78 95.4566 219.319 95.5449 218.806 95.5449C217.955 95.5449 217.305 95.3682 216.857 95.0147C216.413 94.6612 216.13 94.1371 216.006 93.4425Z" fill="black" fill-opacity="0.5"/>
<rect x="33.3098" y="105.073" width="54.7175" height="21.0452" rx="1.57839" stroke="black" stroke-opacity="0.5" stroke-width="1.05226"/>
<path d="M45.9645 117.797L47.9211 117.56C47.9834 118.058 48.1512 118.44 48.4246 118.703C48.6979 118.967 49.0288 119.099 49.4172 119.099C49.8344 119.099 50.1845 118.941 50.4674 118.624C50.7552 118.308 50.899 117.881 50.899 117.344C50.899 116.836 50.7624 116.433 50.489 116.135C50.2157 115.838 49.8824 115.689 49.4892 115.689C49.2302 115.689 48.9209 115.74 48.5613 115.841L48.7842 114.193C49.3309 114.208 49.7481 114.09 50.0359 113.841C50.3236 113.587 50.4674 113.251 50.4674 112.834C50.4674 112.479 50.3619 112.196 50.1509 111.985C49.9399 111.774 49.6594 111.668 49.3093 111.668C48.9641 111.668 48.6692 111.788 48.4246 112.028C48.18 112.268 48.0314 112.618 47.9786 113.078L46.1156 112.762C46.2451 112.124 46.4393 111.616 46.6982 111.237C46.962 110.853 47.3264 110.554 47.7916 110.338C48.2615 110.117 48.7866 110.007 49.3669 110.007C50.3596 110.007 51.1556 110.323 51.755 110.956C52.249 111.474 52.4959 112.059 52.4959 112.711C52.4959 113.637 51.99 114.376 50.9782 114.927C51.5824 115.056 52.0643 115.347 52.424 115.797C52.7884 116.248 52.9707 116.792 52.9707 117.43C52.9707 118.356 52.6326 119.145 51.9564 119.797C51.2803 120.449 50.4387 120.775 49.4316 120.775C48.4773 120.775 47.6861 120.502 47.0579 119.955C46.4297 119.404 46.0652 118.684 45.9645 117.797Z" fill="black"/>
<path opacity="0.75" d="M75.7344 112.964L76.5084 113.747L72.2902 118.009C72.2226 118.077 72.1422 118.132 72.0537 118.169C71.9652 118.206 71.8702 118.226 71.7743 118.226C71.6785 118.226 71.5835 118.206 71.495 118.169C71.4064 118.132 71.3261 118.077 71.2585 118.009L67.0381 113.747L67.8121 112.965L71.7733 116.965L75.7344 112.964Z" fill="black"/>
</g>
<defs>
<filter id="filter0_d_24_2664" x="0.163853" y="0.37289" width="268.326" height="223.079" filterUnits="userSpaceOnUse" color-interpolation-filters="sRGB">
<feFlood flood-opacity="0" result="BackgroundImageFix"/>
<feColorMatrix in="SourceAlpha" type="matrix" values="0 0 0 0 0 0 0 0 0 0 0 0 0 0 0 0 0 0 127 0" result="hardAlpha"/>
<feOffset dy="4.20904"/>
<feGaussianBlur stdDeviation="8.41807"/>
<feComposite in2="hardAlpha" operator="out"/>
<feColorMatrix type="matrix" values="0 0 0 0 0 0 0 0 0 0 0 0 0 0 0 0 0 0 0.1 0"/>
<feBlend mode="normal" in2="BackgroundImageFix" result="effect1_dropShadow_24_2664"/>
<feBlend mode="normal" in="SourceGraphic" in2="effect1_dropShadow_24_2664" result="shape"/>
</filter>
</defs>
</svg>
